<?xml version="1.0" standalone="no"?>
<!DOCTYPE svg PUBLIC "-//W3C//DTD SVG 20010904//EN"
 "http://www.w3.org/TR/2001/REC-SVG-20010904/DTD/svg10.dtd">
<svg version="1.0" xmlns="http://www.w3.org/2000/svg"
 width="512.000000pt" height="512.000000pt" viewBox="0 0 512.000000 512.000000"
 preserveAspectRatio="xMidYMid meet">

<g transform="translate(0.000000,512.000000) scale(0.100000,-0.100000)"
fill="#000000" stroke="none">
<path d="M1771 5105 c-248 -47 -442 -189 -545 -398 -83 -169 -112 -356 -103
-660 12 -403 111 -678 309 -862 159 -147 403 -212 651 -174 411 64 650 417
683 1009 8 159 -10 383 -41 508 -74 290 -250 474 -530 557 -112 33 -307 43
-424 20z"/>
<path d="M3585 4379 c-4 -6 -10 -51 -14 -102 l-6 -91 -70 -28 c-177 -71 -265
-196 -265 -374 0 -180 92 -281 359 -396 212 -91 249 -124 238 -215 -16 -144
-233 -165 -499 -49 -49 21 -59 10 -87 -96 -12 -46 -25 -91 -27 -100 -13 -43
84 -93 238 -123 47 -10 88 -24 96 -33 7 -9 12 -46 12 -92 0 -46 5 -81 12 -88
16 -16 190 -16 206 0 7 7 12 43 12 94 0 67 4 86 21 108 11 14 27 26 36 26 34
0 143 64 191 113 143 147 158 351 37 515 -55 76 -132 125 -303 198 -161 68
-222 117 -222 176 0 43 31 85 76 104 69 29 222 14 339 -33 28 -11 56 -18 62
-16 18 7 76 198 68 224 -8 25 -66 51 -166 74 -41 9 -83 20 -95 25 -24 9 -34
46 -34 119 0 26 -5 52 -12 59 -15 15 -194 17 -203 1z"/>
<path d="M1125 2659 c-222 -118 -375 -204 -535 -302 -153 -94 -265 -204 -315
-308 -67 -143 -70 -171 -70 -759 l0 -525 374 -3 375 -2 380 378 c418 415 424
420 567 444 85 15 171 2 256 -36 50 -23 107 -76 401 -369 l342 -342 386 385
c212 212 389 392 394 401 12 21 -5 235 -25 314 -28 111 -71 183 -164 275 -72
71 -115 102 -266 191 -263 155 -660 368 -668 359 -2 -3 -75 -232 -162 -510
-86 -278 -160 -509 -163 -514 -5 -9 -59 135 -151 404 l-43 125 51 85 c117 191
116 319 -2 383 -35 18 -58 22 -142 22 -88 0 -105 -3 -144 -25 -87 -49 -107
-112 -73 -227 12 -38 44 -106 72 -152 27 -46 50 -87 50 -90 0 -4 -42 -126 -94
-271 -71 -199 -96 -260 -102 -245 -5 11 -79 243 -165 515 -86 272 -160 495
-165 497 -5 1 -94 -43 -199 -98z"/>
<path d="M4420 2173 c-157 -7 -297 -18 -311 -24 -25 -10 -49 -45 -49 -71 0 -6
54 -66 120 -132 l120 -122 -700 -699 -700 -700 -427 426 c-330 329 -436 429
-465 438 -79 26 -76 28 -546 -442 -367 -368 -432 -437 -433 -462 -2 -51 3 -79
17 -106 20 -40 93 -98 130 -105 76 -14 79 -12 447 354 l347 347 428 -427 c235
-234 437 -431 449 -437 38 -19 87 -13 134 18 24 16 386 371 804 790 l759 761
123 -121 c132 -131 140 -134 191 -85 27 26 27 32 47 450 8 176 10 308 5 322
-19 50 -25 50 -490 27z"/>
</g>
</svg>
