<?xml version="1.0" standalone="no"?>
<!DOCTYPE svg PUBLIC "-//W3C//DTD SVG 20010904//EN"
 "http://www.w3.org/TR/2001/REC-SVG-20010904/DTD/svg10.dtd">
<svg version="1.0" xmlns="http://www.w3.org/2000/svg"
 width="512.000000pt" height="512.000000pt" viewBox="0 0 512.000000 512.000000"
 preserveAspectRatio="xMidYMid meet">

<g transform="translate(0.000000,512.000000) scale(0.100000,-0.100000)"
fill="#000000" stroke="none">
<path d="M1655 5109 c-197 -28 -387 -125 -549 -279 -256 -244 -407 -578 -447
-993 -40 -406 101 -796 425 -1174 153 -179 344 -336 506 -417 51 -25 98 -46
106 -46 36 0 19 -66 -28 -110 -26 -24 -26 -24 41 -4 29 8 55 14 57 11 8 -7 64
-261 84 -377 18 -109 24 -153 51 -380 6 -52 14 -279 18 -505 6 -380 7 -410 24
-413 9 -2 31 10 47 26 l30 30 0 314 c0 480 -34 827 -116 1192 -13 60 -24 112
-24 117 0 5 11 4 25 -1 30 -11 30 -13 5 35 -28 54 -25 69 13 83 58 21 184 100
274 173 48 39 88 74 88 78 0 3 -26 56 -58 118 -111 217 -158 405 -158 635 1
420 146 810 406 1085 45 49 116 112 158 142 l76 55 -27 48 c-62 112 -182 253
-282 333 -233 186 -483 261 -745 224z m-381 -623 l78 -74 -67 -78 c-134 -158
-239 -344 -287 -509 -19 -67 -23 -104 -23 -230 0 -130 3 -160 23 -225 27 -84
81 -197 120 -250 l25 -35 -27 25 c-50 45 -118 144 -162 235 -131 270 -110 604
61 950 61 125 150 265 168 265 7 -1 47 -34 91 -74z"/>
<path d="M3175 4576 c-558 -110 -966 -706 -966 -1411 0 -164 16 -264 69 -420
131 -392 471 -804 834 -1012 48 -28 108 -56 133 -63 25 -7 45 -18 45 -24 0
-14 -28 -56 -50 -74 -13 -12 -13 -13 5 -7 11 3 32 9 46 12 l27 5 4 -198 c4
-166 9 -210 26 -264 27 -82 77 -166 149 -247 30 -35 54 -65 52 -67 -2 -2 -32
-20 -65 -40 -123 -71 -194 -167 -194 -259 0 -53 18 -116 65 -237 30 -75 39
-113 43 -183 5 -96 12 -103 62 -67 59 42 50 176 -25 368 -25 62 -45 130 -45
150 0 70 59 126 193 183 88 38 117 60 117 91 0 12 -35 58 -90 114 -70 74 -98
112 -129 177 -52 109 -61 159 -61 342 0 147 1 155 19 155 11 0 31 -4 45 -10
31 -11 31 -14 6 35 -11 22 -20 44 -20 50 0 5 34 27 75 49 190 97 434 319 598
543 251 342 357 694 318 1058 -42 384 -177 695 -409 936 -145 151 -312 254
-487 300 -103 26 -292 34 -390 15z m798 -485 c74 -96 150 -251 178 -361 45
-173 25 -369 -52 -522 -36 -72 -80 -140 -86 -134 -2 2 4 30 14 62 14 46 18 92
17 209 0 134 -3 160 -27 238 -54 174 -150 333 -295 488 l-81 86 102 45 102 46
35 -41 c19 -22 61 -74 93 -116z"/>
</g>
</svg>
