<?xml version="1.0" standalone="no"?>
<!DOCTYPE svg PUBLIC "-//W3C//DTD SVG 20010904//EN"
 "http://www.w3.org/TR/2001/REC-SVG-20010904/DTD/svg10.dtd">
<svg version="1.0" xmlns="http://www.w3.org/2000/svg"
 width="512.000000pt" height="512.000000pt" viewBox="0 0 512.000000 512.000000"
 preserveAspectRatio="xMidYMid meet">

<g transform="translate(0.000000,512.000000) scale(0.100000,-0.100000)"
fill="#000000" stroke="none">
<path d="M2515 5095 l-25 -24 0 -248 0 -248 -1004 -1005 c-908 -909 -1005
-1009 -1012 -1044 -4 -21 -4 -87 -2 -146 4 -87 10 -119 31 -163 49 -106 143
-180 254 -195 l48 -7 2 -975 c2 -697 6 -981 14 -996 6 -12 22 -27 36 -33 17
-8 497 -11 1714 -11 1495 0 1693 2 1719 15 17 9 31 17 32 18 2 1 5 447 8 992
l5 990 46 6 c112 16 208 89 255 192 24 54 28 77 32 185 3 79 0 132 -7 150 -6
15 -441 457 -966 982 l-955 955 308 68 c169 37 317 74 329 82 28 19 38 67 21
102 -11 24 -68 53 -408 205 -217 97 -408 177 -423 177 -17 1 -37 -9 -52 -24z
m337 -276 c101 -45 187 -84 192 -87 9 -5 -347 -90 -381 -91 -10 -1 -13 31 -13
129 0 78 4 130 10 130 5 0 92 -36 192 -81z m-132 -554 c143 -143 144 -144 125
-165 -31 -34 -155 -89 -228 -100 -104 -16 -222 17 -315 88 l-33 25 148 149
c81 81 150 148 153 148 3 0 70 -65 150 -145z m-547 -289 c17 -13 -5 -60 -322
-695 l-341 -681 -377 0 -378 0 695 695 c382 382 697 695 700 695 3 0 13 -7 23
-14z m1517 -681 l695 -695 -378 0 -377 0 -340 681 c-344 687 -354 709 -306
709 6 0 324 -313 706 -695z m-1299 561 c24 -8 56 -17 72 -20 l27 -6 -2 -613
-3 -612 -393 -3 -392 -2 317 635 c175 349 321 635 324 635 3 0 25 -6 50 -14z
m734 -616 c173 -346 315 -632 315 -635 0 -3 -177 -4 -392 -3 l-393 3 -3 612
-2 611 62 20 c35 11 71 20 80 21 14 1 91 -145 333 -629z m-2149 -876 c-11
-104 -46 -152 -127 -174 -54 -15 -105 -3 -147 34 -45 39 -62 81 -62 151 l0 55
171 0 172 0 -7 -66z m502 -3 c-3 -56 -9 -75 -32 -106 -38 -49 -104 -79 -156
-70 -88 15 -139 77 -148 180 l-5 65 173 0 172 0 -4 -69z m502 8 c0 -112 -64
-183 -165 -183 -101 0 -165 71 -165 183 l0 61 165 0 165 0 0 -61z m507 -4
c-10 -103 -47 -153 -130 -176 -51 -13 -102 0 -148 38 -41 35 -59 79 -59 148
l0 55 171 0 172 0 -6 -65z m503 10 c0 -71 -18 -114 -65 -152 -45 -37 -91 -48
-144 -33 -81 22 -118 73 -128 175 l-6 65 172 0 171 0 0 -55z m500 -5 c0 -114
-63 -184 -165 -184 -101 0 -165 71 -165 183 l0 61 165 0 165 0 0 -60z m508 -5
c-9 -103 -60 -165 -148 -180 -52 -9 -118 21 -155 69 -22 29 -29 50 -33 106
l-5 70 173 0 173 0 -5 -65z m502 10 c0 -70 -17 -112 -62 -151 -42 -37 -93 -49
-147 -34 -82 22 -121 80 -121 179 l0 61 165 0 165 0 0 -55z m-3395 -283 c82
-72 216 -94 323 -54 l52 20 0 -944 0 -944 -250 0 -250 0 0 946 0 947 38 33
c20 18 39 33 40 34 2 0 23 -17 47 -38z m1044 -362 l1 -335 -51 -50 c-81 -79
-126 -152 -170 -275 -23 -63 -23 -76 -27 -482 l-3 -418 -125 0 -124 0 0 945 0
946 30 -16 c102 -52 283 -22 360 60 l22 23 43 -31 44 -32 0 -335z m454 372
c38 -40 112 -74 169 -80 l48 -5 0 -259 0 -260 -22 6 c-76 22 -163 36 -228 36
-65 0 -152 -14 -227 -36 l-23 -6 0 260 0 259 48 5 c57 6 131 40 169 80 15 15
30 28 33 28 3 0 18 -13 33 -28z m576 -52 c77 -39 211 -41 281 -5 l30 16 0
-946 0 -945 -125 0 -125 0 0 388 c0 300 -4 402 -15 456 -26 124 -122 289 -207
356 l-28 21 0 332 0 332 42 37 43 36 33 -29 c18 -16 50 -38 71 -49z m981 -932
l0 -948 -250 0 -250 0 0 945 0 945 52 -21 c104 -41 230 -22 323 50 l50 38 37
-31 38 -31 0 -947z m-1431 231 c155 -54 271 -174 322 -334 17 -55 19 -95 19
-452 l0 -393 -500 0 -500 0 0 388 c0 350 2 393 19 452 55 189 212 329 406 360
67 11 168 1 234 -21z"/>
</g>
</svg>
