<?xml version="1.0" standalone="no"?>

<svg version="1.0" xmlns="http://www.w3.org/2000/svg"
 width="512.000000pt" height="512.000000pt" viewBox="0 0 512.000000 512.000000"
 preserveAspectRatio="xMidYMid meet">

<g transform="translate(0.000000,512.000000) scale(0.100000,-0.100000)"
fill="#000000" stroke="none">
<path d="M3925 4309 c-340 -50 -648 -247 -774 -497 -56 -111 -77 -299 -47
-425 10 -43 11 -59 2 -62 -6 -2 -29 -9 -51 -16 -117 -35 -265 -139 -397 -278
l-85 -89 -186 186 -186 187 6 115 c19 387 -206 709 -569 814 -106 30 -223 40
-318 26 -82 -11 -260 -59 -260 -69 0 -3 108 -114 240 -246 253 -253 261 -263
245 -336 -10 -44 -194 -235 -253 -261 -77 -35 -88 -27 -358 243 -133 133 -244
237 -247 233 -3 -5 -19 -65 -36 -133 -61 -243 -30 -463 94 -656 158 -248 470
-395 757 -356 l83 11 214 -214 213 -213 -424 -505 c-234 -277 -433 -518 -442
-535 -20 -39 -21 -125 -2 -161 21 -39 126 -139 159 -151 47 -18 109 -13 152
12 22 13 256 205 521 428 264 222 488 410 498 418 15 13 60 -29 494 -461 447
-445 481 -477 535 -497 74 -27 150 -27 224 0 50 19 77 41 194 158 119 118 139
144 159 196 28 77 25 177 -9 245 -16 31 -160 183 -467 490 l-445 446 73 66
c134 120 270 316 300 431 9 35 16 46 27 43 119 -34 249 -39 350 -12 114 29
189 73 276 161 159 159 179 240 161 645 -8 163 -7 192 9 245 24 83 56 133 143
226 41 44 73 81 71 83 -13 10 -207 57 -272 65 -91 13 -286 12 -372 0z m310
-165 c21 -5 20 -6 -7 -62 -48 -99 -59 -162 -56 -317 7 -368 4 -437 -18 -486
-42 -91 -138 -174 -240 -209 -264 -91 -546 47 -634 310 -29 86 -25 235 9 322
81 208 360 394 657 437 68 10 259 13 289 5z m-2670 -55 c28 -6 88 -29 134 -51
249 -119 385 -408 325 -695 l-15 -76 227 -228 c209 -209 226 -229 213 -246 -8
-10 -83 -100 -168 -201 l-154 -184 -243 243 -242 242 -73 -19 c-377 -94 -743
164 -775 546 l-7 75 136 -133 c162 -158 210 -186 322 -186 107 1 147 24 301
178 114 114 134 139 154 191 17 47 21 74 17 126 -7 102 -33 144 -186 302
l-136 140 60 -7 c33 -4 83 -11 110 -17z m1714 -1033 c100 -100 103 -105 96
-137 -20 -91 -117 -234 -234 -346 -78 -74 -1761 -1493 -1771 -1493 -3 1 -19
20 -37 43 -31 41 -32 42 -14 62 10 11 342 405 738 875 396 470 748 881 782
913 115 106 246 183 316 186 13 1 57 -36 124 -103z m198 -1258 c299 -300 444
-452 449 -471 18 -75 -10 -121 -156 -260 -94 -90 -129 -107 -187 -92 -19 4
-181 159 -491 468 -254 254 -461 465 -460 468 5 12 383 328 393 328 6 1 209
-198 452 -441z"/>
</g>
</svg>
