<?xml version="1.0" encoding="UTF-8"?>
<!DOCTYPE svg PUBLIC "-//W3C//DTD SVG 1.1//EN" "http://www.w3.org/Graphics/SVG/1.1/DTD/svg11.dtd">
<svg xmlns="http://www.w3.org/2000/svg" version="1.1" width="512px" height="512px" style="shape-rendering:geometricPrecision; text-rendering:geometricPrecision; image-rendering:optimizeQuality; fill-rule:evenodd; clip-rule:evenodd" xmlns:xlink="http://www.w3.org/1999/xlink">
<g><path style="opacity:0.967" fill="#000000" d="M 511.5,486.5 C 511.5,490.167 511.5,493.833 511.5,497.5C 509.378,501.785 506.045,504.952 501.5,507C 337.5,507.667 173.5,507.667 9.5,507C 4.9552,504.952 1.62186,501.785 -0.5,497.5C -0.5,493.833 -0.5,490.167 -0.5,486.5C 1.81949,481.36 5.81949,478.194 11.5,477C 20.8274,476.5 30.1607,476.334 39.5,476.5C 39.6667,438.165 39.5,399.832 39,361.5C 33.0306,356.569 29.3639,350.236 28,342.5C 27.3333,325.5 27.3333,308.5 28,291.5C 32.6013,274.565 43.4346,264.065 60.5,260C 69.8274,259.5 79.1607,259.334 88.5,259.5C 88.0419,225.465 88.5419,191.465 90,157.5C 94.8038,143.509 104.637,136.509 119.5,136.5C 119.665,133.482 119.498,130.482 119,127.5C 90.792,113.227 82.4587,91.2267 94,61.5C 102.301,43.5611 111.635,26.2277 122,9.5C 129.426,2.29106 137.426,1.6244 146,7.5C 160.266,29.0319 171.599,52.0319 180,76.5C 182.407,94.6168 176.574,109.45 162.5,121C 158.856,123.656 154.856,125.489 150.5,126.5C 150.5,129.833 150.5,133.167 150.5,136.5C 166.186,137.357 176.02,145.357 180,160.5C 180.5,193.498 180.667,226.498 180.5,259.5C 190.167,259.5 199.833,259.5 209.5,259.5C 209.034,225.126 209.534,190.793 211,156.5C 216.348,143.241 226.181,136.574 240.5,136.5C 240.665,133.482 240.498,130.482 240,127.5C 218.241,117.993 208.241,101.327 210,77.5C 218.09,51.4849 230.257,27.6515 246.5,6C 255.205,1.58554 262.705,3.08554 269,10.5C 277.842,25.5136 286.175,40.847 294,56.5C 306.549,80.1733 303.382,101.34 284.5,120C 280.371,123.148 275.871,125.648 271,127.5C 270.502,130.482 270.335,133.482 270.5,136.5C 284.819,136.574 294.652,143.241 300,156.5C 301.466,190.793 301.966,225.126 301.5,259.5C 311.167,259.5 320.833,259.5 330.5,259.5C 330.333,226.498 330.5,193.498 331,160.5C 334.98,145.357 344.814,137.357 360.5,136.5C 360.5,133.167 360.5,129.833 360.5,126.5C 344.028,120.521 334.195,108.854 331,91.5C 330.333,86.5 330.333,81.5 331,76.5C 339.401,52.0319 350.734,29.0319 365,7.5C 373.574,1.6244 381.574,2.29106 389,9.5C 402.303,29.439 412.969,50.7723 421,73.5C 424.96,98.9173 415.294,116.917 392,127.5C 391.502,130.482 391.335,133.482 391.5,136.5C 406.325,136.495 416.159,143.495 421,157.5C 422.458,191.465 422.958,225.465 422.5,259.5C 431.839,259.334 441.173,259.5 450.5,260C 467.565,264.065 478.399,274.565 483,291.5C 483.667,308.5 483.667,325.5 483,342.5C 481.636,350.236 477.969,356.569 472,361.5C 471.5,399.832 471.333,438.165 471.5,476.5C 480.839,476.334 490.173,476.5 499.5,477C 505.181,478.194 509.181,481.36 511.5,486.5 Z M 133.5,50.5 C 136.804,54.3467 139.637,58.68 142,63.5C 145.297,70.0591 147.797,76.8924 149.5,84C 148.649,92.8512 143.816,97.6845 135,98.5C 121.629,96.1011 117.296,88.4345 122,75.5C 125.845,67.145 129.678,58.8117 133.5,50.5 Z M 254.5,50.5 C 261.916,60.6744 267.25,72.0078 270.5,84.5C 266.578,98.4606 258.244,101.961 245.5,95C 242.892,91.9501 241.225,88.4501 240.5,84.5C 241.498,79.674 242.998,75.0073 245,70.5C 248.451,63.9328 251.618,57.2661 254.5,50.5 Z M 375.5,50.5 C 382.913,60.6688 388.247,72.0021 391.5,84.5C 388.023,97.6092 380.023,101.442 367.5,96C 360.493,88.9315 359.66,81.0982 365,72.5C 368.255,64.9925 371.755,57.6592 375.5,50.5 Z M 119.5,167.5 C 129.5,167.5 139.5,167.5 149.5,167.5C 149.5,198.167 149.5,228.833 149.5,259.5C 139.5,259.5 129.5,259.5 119.5,259.5C 119.5,228.833 119.5,198.167 119.5,167.5 Z M 240.5,167.5 C 250.5,167.5 260.5,167.5 270.5,167.5C 270.5,198.167 270.5,228.833 270.5,259.5C 260.5,259.5 250.5,259.5 240.5,259.5C 240.5,228.833 240.5,198.167 240.5,167.5 Z M 361.5,167.5 C 371.5,167.5 381.5,167.5 391.5,167.5C 391.5,198.167 391.5,228.833 391.5,259.5C 381.5,259.5 371.5,259.5 361.5,259.5C 361.5,228.833 361.5,198.167 361.5,167.5 Z M 65.5,290.5 C 192.167,290.333 318.834,290.5 445.5,291C 448.573,291.739 450.74,293.572 452,296.5C 452.667,310.167 452.667,323.833 452,337.5C 449.005,340.265 445.505,341.098 441.5,340C 425.225,335.131 408.892,330.464 392.5,326C 370.436,322.43 348.436,322.764 326.5,327C 309.663,332.279 292.663,336.946 275.5,341C 258.708,343.405 242.042,342.739 225.5,339C 208.71,333.553 191.71,328.886 174.5,325C 155.781,322.763 137.114,323.097 118.5,326C 101.011,330.914 83.5114,335.747 66,340.5C 63.1861,340.592 60.8527,339.592 59,337.5C 58.3333,323.833 58.3333,310.167 59,296.5C 60.4361,293.558 62.6028,291.558 65.5,290.5 Z M 146.5,353.5 C 154.856,354.058 163.189,354.891 171.5,356C 188.167,360.667 204.833,365.333 221.5,370C 240.387,373.752 259.387,374.418 278.5,372C 298.986,367.283 319.319,361.95 339.5,356C 355.881,352.894 372.214,353.227 388.5,357C 405.764,362.149 423.097,366.982 440.5,371.5C 440.5,406.5 440.5,441.5 440.5,476.5C 317.167,476.5 193.833,476.5 70.5,476.5C 70.5,441.5 70.5,406.5 70.5,371.5C 87.9029,366.982 105.236,362.149 122.5,357C 130.587,355.401 138.587,354.234 146.5,353.5 Z"/></g>
</svg>
