<?xml version="1.0" encoding="UTF-8"?>
<!DOCTYPE svg PUBLIC "-//W3C//DTD SVG 1.1//EN" "http://www.w3.org/Graphics/SVG/1.1/DTD/svg11.dtd">
<svg xmlns="http://www.w3.org/2000/svg" version="1.1" width="512px" height="512px" style="shape-rendering:geometricPrecision; text-rendering:geometricPrecision; image-rendering:optimizeQuality; fill-rule:evenodd; clip-rule:evenodd" xmlns:xlink="http://www.w3.org/1999/xlink">
<g><path style="opacity:0.979" fill="#000000" d="M 244.5,-0.5 C 251.5,-0.5 258.5,-0.5 265.5,-0.5C 302.187,11.1917 315.687,35.8584 306,73.5C 290.964,102.929 267.464,113.096 235.5,104C 204.761,88.0077 194.928,63.5077 206,30.5C 214.248,14.4139 227.081,4.08061 244.5,-0.5 Z"/></g>
<g><path style="opacity:0.963" fill="#000000" d="M 352.5,86.5 C 358.092,86.0866 363.092,87.5866 367.5,91C 377.697,100.863 387.53,111.029 397,121.5C 398.465,135.402 398.965,149.402 398.5,163.5C 388.5,163.5 378.5,163.5 368.5,163.5C 368.666,154.494 368.5,145.494 368,136.5C 360.333,128.833 352.667,121.167 345,113.5C 337.489,101.55 339.989,92.5496 352.5,86.5 Z"/></g>
<g><path style="opacity:0.979" fill="#000000" d="M 215.5,119.5 C 242.169,119.333 268.835,119.5 295.5,120C 319.869,124.215 331.203,138.715 329.5,163.5C 280.167,163.5 230.833,163.5 181.5,163.5C 179.799,138.555 191.132,123.888 215.5,119.5 Z"/></g>
<g><path style="opacity:0.996" fill="#000000" d="M 121.5,193.5 C 210.834,193.333 300.167,193.5 389.5,194C 393.667,195.5 396.5,198.333 398,202.5C 398.667,212.5 398.667,222.5 398,232.5C 396.5,236.667 393.667,239.5 389.5,241C 300.167,241.667 210.833,241.667 121.5,241C 117.333,239.5 114.5,236.667 113,232.5C 112.072,221.76 112.405,211.093 114,200.5C 116.396,197.933 118.896,195.6 121.5,193.5 Z"/></g>
<g><path style="opacity:0.972" fill="#000000" d="M 152.5,271.5 C 173.503,271.333 194.503,271.5 215.5,272C 184.016,290.799 169.849,318.632 173,355.5C 174.991,367.806 179.157,379.306 185.5,390C 173.579,398.094 164.245,408.594 157.5,421.5C 155.955,422.452 154.288,422.785 152.5,422.5C 152.5,372.167 152.5,321.833 152.5,271.5 Z"/></g>
<g><path style="opacity:0.972" fill="#000000" d="M 295.5,272.5 C 316.327,271.503 337.327,271.169 358.5,271.5C 358.5,321.833 358.5,372.167 358.5,422.5C 356.801,422.66 355.134,422.494 353.5,422C 347.035,408.866 337.702,398.199 325.5,390C 344.932,354.784 342.432,321.284 318,289.5C 311.455,282.44 303.955,276.773 295.5,272.5 Z"/></g>
<g><path style="opacity:0.98" fill="#000000" d="M 65.5,290.5 C 92.8495,288.584 112.349,299.917 124,324.5C 132.647,352.897 124.814,375.397 100.5,392C 69.9492,405.324 45.1158,398.49 26,371.5C 13.1548,342.708 18.9882,318.541 43.5,299C 50.4687,294.85 57.8021,292.017 65.5,290.5 Z"/></g>
<g><path style="opacity:0.98" fill="#000000" d="M 247.5,290.5 C 274.842,288.581 294.342,299.914 306,324.5C 314.978,353.011 307.145,375.511 282.5,392C 251.949,405.324 227.116,398.49 208,371.5C 195.155,342.708 200.988,318.541 225.5,299C 232.469,294.85 239.802,292.017 247.5,290.5 Z"/></g>
<g><path style="opacity:0.98" fill="#000000" d="M 429.5,290.5 C 456.849,288.584 476.349,299.917 488,324.5C 496.647,352.897 488.814,375.397 464.5,392C 433.949,405.324 409.116,398.49 390,371.5C 377.15,342.738 382.983,318.572 407.5,299C 414.469,294.85 421.802,292.017 429.5,290.5 Z"/></g>
<g><path style="opacity:0.988" fill="#000000" d="M 90.5,511.5 C 79.1667,511.5 67.8333,511.5 56.5,511.5C 38.6685,508.951 21.6685,503.451 5.5,495C 2.87922,492.886 0.879222,490.386 -0.5,487.5C -0.5,471.5 -0.5,455.5 -0.5,439.5C 3.65168,425.183 12.985,416.016 27.5,412C 58.1667,411.333 88.8333,411.333 119.5,412C 134,415.833 143.167,425 147,439.5C 147.667,455.5 147.667,471.5 147,487.5C 143.732,493.901 138.565,498.067 131.5,500C 118.196,505.573 104.529,509.406 90.5,511.5 Z"/></g>
<g><path style="opacity:0.989" fill="#000000" d="M 272.5,511.5 C 261.167,511.5 249.833,511.5 238.5,511.5C 220.741,508.748 203.741,503.248 187.5,495C 184.894,493.062 183.061,490.562 182,487.5C 169.501,426.167 194.001,400.834 255.5,411.5C 316.999,400.834 341.499,426.167 329,487.5C 327.939,490.562 326.106,493.062 323.5,495C 307.259,503.248 290.259,508.748 272.5,511.5 Z"/></g>
<g><path style="opacity:0.988" fill="#000000" d="M 511.5,439.5 C 511.5,455.5 511.5,471.5 511.5,487.5C 507.987,493.783 502.654,497.95 495.5,500C 482.196,505.573 468.529,509.406 454.5,511.5C 443.167,511.5 431.833,511.5 420.5,511.5C 402.669,508.951 385.669,503.451 369.5,495C 366.894,493.062 365.061,490.562 364,487.5C 363.333,471.5 363.333,455.5 364,439.5C 367.869,424.965 377.035,415.798 391.5,412C 422.167,411.333 452.833,411.333 483.5,412C 498.015,416.016 507.348,425.183 511.5,439.5 Z"/></g>
</svg>
