<?xml version="1.0" standalone="no"?>

<svg version="1.0" xmlns="http://www.w3.org/2000/svg"
 width="225.000000pt" height="225.000000pt" viewBox="0 0 225.000000 225.000000"
 preserveAspectRatio="xMidYMid meet">

<g transform="translate(0.000000,225.000000) scale(0.100000,-0.100000)"
fill="#000000" stroke="none">
<path d="M165 2238 c-61 -17 -139 -100 -154 -166 -15 -59 -8 -120 20 -172 9
-19 184 -201 388 -405 l371 -370 -374 -375 c-206 -206 -381 -388 -389 -405
-24 -49 -30 -111 -16 -167 17 -74 93 -150 167 -167 59 -15 120 -8 172 20 19 9
201 184 405 388 l370 371 375 -374 c206 -206 389 -381 405 -389 49 -24 111
-30 167 -16 74 17 150 93 167 167 14 56 8 118 -16 167 -8 17 -183 199 -389
405 l-374 375 371 370 c204 204 379 386 388 405 28 52 35 113 20 172 -17 74
-93 150 -167 167 -56 14 -118 8 -167 -16 -16 -8 -199 -183 -405 -389 l-375
-374 -370 371 c-204 204 -387 379 -407 390 -46 23 -130 32 -183 17z"/>
</g>
</svg>
