<?xml version="1.0" standalone="no"?>
<!DOCTYPE svg PUBLIC "-//W3C//DTD SVG 20010904//EN"
 "http://www.w3.org/TR/2001/REC-SVG-20010904/DTD/svg10.dtd">
<svg version="1.0" xmlns="http://www.w3.org/2000/svg"
 width="735.000000pt" height="393.000000pt" viewBox="0 0 735.000000 393.000000"
 preserveAspectRatio="xMidYMid meet">

<g transform="translate(0.000000,393.000000) scale(0.100000,-0.100000)"
fill="#000000" stroke="none">
<path d="M4099 3563 c-143 -37 -331 -160 -619 -407 -119 -102 -595 -576 -775
-771 -216 -234 -470 -521 -542 -610 l-31 -40 -139 72 c-76 39 -202 99 -279
131 -342 145 -508 164 -612 69 -27 -26 -53 -107 -44 -141 4 -13 86 -105 182
-203 305 -311 446 -498 736 -983 187 -312 185 -309 213 -318 67 -21 94 5 156
158 117 287 374 824 436 912 11 14 19 29 19 34 0 5 202 345 216 363 8 9 286
-271 391 -394 186 -218 477 -653 646 -965 43 -79 78 -113 118 -112 47 1 80 42
123 152 220 562 594 1239 954 1725 107 144 275 351 373 460 15 17 37 41 49 55
12 14 151 156 310 315 159 160 293 303 299 318 14 37 14 90 -1 121 -6 14 -31
35 -55 47 -155 75 -383 -42 -807 -412 -310 -271 -896 -884 -1292 -1353 l-42
-49 -139 71 c-176 90 -300 144 -436 193 -107 39 -276 75 -302 65 -41 -15 -19
22 122 209 245 325 370 465 735 823 119 118 231 234 248 260 87 131 -35 250
-211 205z"/>
</g>
</svg>
