<?xml version="1.0" standalone="no"?>

<svg version="1.0" xmlns="http://www.w3.org/2000/svg"
 width="225.000000pt" height="225.000000pt" viewBox="0 0 225.000000 225.000000"
 preserveAspectRatio="xMidYMid meet">

<g transform="translate(0.000000,225.000000) scale(0.100000,-0.100000)"
fill="#000000" stroke="none">
<path d="M993 2239 c-455 -53 -840 -388 -953 -830 -102 -397 14 -808 306
-1089 164 -158 332 -246 563 -296 101 -22 338 -23 438 0 228 50 405 147 569
310 221 220 327 476 327 791 0 308 -101 558 -315 781 -241 250 -586 374 -935
333z m377 -207 c350 -98 619 -392 681 -746 17 -98 7 -323 -19 -406 -55 -181
-117 -285 -247 -415 -144 -143 -289 -223 -475 -261 -115 -23 -334 -15 -440 16
-276 80 -513 295 -620 564 -16 40 -36 107 -44 149 -21 99 -21 285 0 385 73
355 364 647 724 727 97 22 342 14 440 -13z"/>
<path d="M1235 1290 l-250 -250 -95 96 c-114 115 -136 128 -204 121 -41 -4
-55 -10 -83 -41 -29 -32 -33 -42 -33 -93 l0 -57 178 -178 178 -178 59 0 59 0
304 303 c167 166 310 314 318 329 17 33 18 105 0 136 -22 40 -66 62 -126 62
l-54 0 -251 -250z"/>
</g>
</svg>
