<?xml version="1.0" standalone="no"?>

<svg version="1.0" xmlns="http://www.w3.org/2000/svg"
 width="50.000000pt" height="50.000000pt" viewBox="0 0 50.000000 50.000000"
 preserveAspectRatio="xMidYMid meet">

<g transform="translate(0.000000,50.000000) scale(0.100000,-0.100000)"
fill="#000000" stroke="none">
<path d="M245 264 c-60 -74 -112 -134 -115 -134 -3 0 -26 20 -50 45 -44 45
-70 57 -70 32 0 -18 102 -117 120 -116 16 0 250 280 250 298 0 30 -35 -2 -135
-125z"/>
<path d="M355 264 c-69 -85 -116 -134 -128 -134 -25 0 -18 -34 8 -37 15 -2 51
36 138 142 64 79 117 148 117 154 0 30 -35 -2 -135 -125z"/>
</g>
</svg>
