<?xml version="1.0" standalone="no"?>

<svg version="1.0" xmlns="http://www.w3.org/2000/svg"
 width="512.000000pt" height="512.000000pt" viewBox="0 0 512.000000 512.000000"
 preserveAspectRatio="xMidYMid meet">

<g transform="translate(0.000000,512.000000) scale(0.100000,-0.100000)"
fill="#000000" stroke="none">
<path d="M1840 4955 c-8 -2 -49 -9 -90 -15 -211 -35 -428 -149 -589 -310 -210
-209 -321 -480 -321 -780 0 -244 63 -445 202 -647 61 -89 199 -223 295 -286
369 -245 857 -245 1226 0 96 64 234 197 297 289 69 99 133 238 167 360 26 92
28 111 27 284 0 156 -4 197 -22 262 -118 429 -432 731 -857 824 -64 14 -300
28 -335 19z m332 -234 c190 -49 366 -164 485 -315 63 -81 144 -242 168 -336
23 -90 31 -272 16 -366 -65 -402 -385 -707 -794 -755 -297 -35 -612 96 -800
332 -64 79 -147 240 -172 334 -26 93 -31 304 -11 404 76 376 374 660 754 721
85 13 265 4 354 -19z"/>
<path d="M3552 2749 c-53 -13 -107 -64 -121 -116 -6 -21 -11 -91 -11 -155 l0
-118 -158 0 c-203 0 -242 -11 -320 -86 l-57 -55 -45 26 c-505 292 -1157 312
-1675 53 -510 -255 -859 -727 -966 -1303 -21 -116 -37 -364 -25 -409 4 -15 21
-35 39 -46 31 -20 58 -20 1413 -20 l1381 0 12 -71 c20 -123 75 -200 179 -251
l67 -33 635 0 635 0 57 27 c66 31 128 91 160 156 l23 47 3 696 2 696 26 14
c43 22 111 106 128 156 39 114 12 228 -74 315 -78 77 -117 88 -321 88 l-157 0
-4 138 c-3 130 -5 141 -30 179 -50 76 -60 78 -428 80 -186 1 -343 -3 -368 -8z
m618 -299 l0 -90 -270 0 -270 0 0 90 0 90 270 0 270 0 0 -90z m-2025 -191
c205 -25 442 -107 614 -212 75 -46 88 -59 113 -107 15 -31 52 -77 83 -106 l55
-51 0 -520 0 -520 -407 -6 c-223 -4 -815 -7 -1316 -7 l-909 0 7 73 c38 397
198 742 469 1012 179 178 354 289 585 369 91 32 257 69 351 79 79 8 271 6 355
-4z m2566 -138 c21 -21 29 -39 29 -63 -1 -44 -17 -63 -65 -74 -51 -11 -1497
-12 -1550 0 -49 10 -65 29 -65 75 1 39 13 61 45 79 15 8 232 11 798 12 l779 0
29 -29z m-141 -1016 c0 -729 3 -692 -67 -721 -50 -21 -1172 -20 -1212 0 -64
34 -61 -1 -61 721 l0 655 670 0 670 0 0 -655z"/>
<path d="M3477 1190 c-15 -12 -31 -38 -37 -58 -13 -48 -13 -476 0 -524 29
-104 171 -104 200 0 13 48 13 476 0 524 -14 48 -52 78 -100 78 -22 0 -48 -8
-63 -20z"/>
<path d="M3828 1181 l-33 -29 -3 -260 c-4 -284 1 -314 52 -348 37 -24 104 -14
133 21 23 26 23 30 23 306 l0 281 -29 29 c-41 41 -98 41 -143 0z"/>
<path d="M4201 1194 c-46 -32 -51 -66 -51 -316 0 -129 5 -250 10 -270 16 -55
54 -81 110 -75 32 4 51 13 67 32 23 26 23 29 23 306 l0 281 -29 29 c-34 34
-92 40 -130 13z"/>
</g>
</svg>
