<?xml version="1.0" standalone="no"?>
<!DOCTYPE svg PUBLIC "-//W3C//DTD SVG 20010904//EN"
 "http://www.w3.org/TR/2001/REC-SVG-20010904/DTD/svg10.dtd">
<svg version="1.0" xmlns="http://www.w3.org/2000/svg"
 width="200.000000pt" height="200.000000pt" viewBox="0 0 200.000000 200.000000"
 preserveAspectRatio="xMidYMid meet">

<g transform="translate(0.000000,200.000000) scale(0.100000,-0.100000)"
fill="#000000" stroke="none">
<path d="M855 1741 c-16 -10 -43 -33 -60 -51 -68 -72 -190 -110 -360 -110 -83
1 -124 5 -165 20 -93 33 -140 24 -158 -29 -13 -36 0 -256 23 -383 36 -206 110
-371 218 -484 103 -109 220 -164 351 -165 160 -1 325 155 382 362 27 97 25
311 -4 458 -28 140 -96 351 -123 380 -24 26 -64 27 -104 2z m-1 -407 c25 -10
19 -29 -19 -63 -59 -52 -118 -56 -123 -9 -5 41 36 78 87 78 22 0 46 -3 55 -6z
m-345 -90 c24 -30 16 -49 -28 -66 -26 -9 -116 6 -126 22 -18 29 39 69 97 70
28 0 41 -6 57 -26z m332 -351 c-63 -124 -206 -151 -314 -61 l-28 23 109 0
c106 0 111 1 178 36 38 20 70 37 72 38 1 1 -6 -16 -17 -36z"/>
<path d="M1162 1408 c-25 -25 -14 -74 22 -106 124 -108 398 -163 558 -110 37
12 70 19 73 16 9 -9 -15 -216 -37 -318 -78 -361 -235 -555 -460 -568 -69 -4
-81 -2 -121 21 -58 34 -127 111 -162 182 -30 59 -57 75 -94 56 -37 -20 -37
-56 0 -128 44 -87 136 -180 219 -221 50 -26 75 -32 124 -32 330 1 556 282 630
783 21 135 21 249 1 287 -17 34 -62 60 -100 60 -14 0 -51 -8 -83 -19 -87 -28
-123 -32 -200 -21 -103 14 -198 49 -256 92 -51 39 -92 48 -114 26z"/>
<path d="M1206 1070 c-32 -10 -76 -47 -76 -65 0 -21 84 -92 124 -105 41 -13
82 -7 109 17 21 20 21 32 1 83 -23 58 -94 89 -158 70z"/>
<path d="M1534 985 c-17 -9 -40 -32 -50 -50 -15 -29 -16 -37 -5 -58 29 -53
108 -65 193 -28 58 25 64 34 41 73 -38 65 -119 93 -179 63z"/>
<path d="M1213 720 c-71 -32 -176 -150 -134 -150 6 0 40 7 78 16 119 28 232 0
320 -80 56 -50 67 -48 60 13 -20 165 -182 266 -324 201z"/>
</g>
</svg>
