<?xml version="1.0" standalone="no"?>

<svg version="1.0" xmlns="http://www.w3.org/2000/svg"
 width="900.000000pt" height="900.000000pt" viewBox="0 0 900.000000 900.000000"
 preserveAspectRatio="xMidYMid meet">

<g transform="translate(0.000000,900.000000) scale(0.100000,-0.100000)"
fill="#000000" stroke="none">
<path d="M4406 8645 c-325 -272 -761 -506 -1278 -686 -554 -193 -1229 -327
-1862 -368 -88 -6 -165 -11 -173 -11 -16 0 -18 -266 -3 -665 68 -1819 441
-3320 1115 -4495 372 -649 879 -1229 1433 -1642 238 -177 567 -364 768 -436
l90 -33 65 21 c94 32 408 189 532 267 444 280 854 654 1210 1100 975 1225
1525 3003 1606 5198 8 214 14 685 9 685 -587 23 -1264 138 -1828 309 -597 181
-1117 443 -1479 746 -56 47 -105 85 -109 85 -4 0 -47 -34 -96 -75z m1354
-4145 c693 0 1260 -4 1260 -8 0 -15 -90 -335 -132 -467 -410 -1309 -1190
-2350 -2124 -2837 -93 -48 -247 -118 -260 -118 -2 0 -4 772 -4 1715 l0 1715
-1262 2 -1263 3 -31 138 c-141 608 -222 1307 -240 2077 l-7 278 79 6 c876 71
1623 270 2229 594 109 59 347 214 435 285 l55 43 3 -1713 2 -1713 1260 0z"/>
</g>
</svg>
