<?xml version="1.0" standalone="no"?>
<svg version="1.0" xmlns="http://www.w3.org/2000/svg"
 width="512.000000pt" height="512.000000pt" viewBox="0 0 512.000000 512.000000"
 preserveAspectRatio="xMidYMid meet">

<g transform="translate(0.000000,512.000000) scale(0.100000,-0.100000)"
fill="#000000" stroke="none">
<path d="M2395 3940 c-599 -43 -1209 -299 -1756 -736 -225 -180 -421 -373
-578 -566 l-62 -78 62 -77 c213 -265 511 -535 819 -745 724 -493 1490 -665
2229 -502 560 124 1100 419 1597 872 119 109 255 253 353 375 l62 77 -62 78
c-317 393 -780 762 -1246 996 -454 227 -970 338 -1418 306z m355 -430 c526
-107 867 -617 760 -1140 -134 -657 -874 -985 -1448 -642 -340 204 -527 608
-458 992 8 41 11 78 7 81 -3 3 -51 13 -106 22 -70 11 -101 13 -106 5 -15 -24
-30 -165 -30 -277 1 -298 112 -582 314 -797 71 -77 69 -77 -88 -7 -367 162
-762 439 -1060 742 l-69 71 69 71 c179 182 439 390 663 531 130 82 406 223
499 255 l53 18 48 -55 c27 -30 60 -68 73 -83 l24 -28 63 50 c220 176 514 248
792 191z m728 -116 c368 -152 799 -449 1107 -763 l69 -71 -69 -71 c-298 -303
-693 -580 -1060 -742 -157 -70 -159 -70 -88 7 419 448 420 1164 2 1611 -34 36
-58 65 -55 65 4 0 46 -16 94 -36z"/>
<path d="M2485 3200 c-33 -4 -80 -13 -105 -20 -61 -16 -186 -83 -232 -123
l-36 -32 154 -174 c85 -95 153 -175 151 -178 -4 -3 -393 58 -454 72 -19 5 -23
-1 -34 -52 -16 -81 -14 -216 6 -293 44 -170 169 -328 321 -407 105 -55 187
-75 304 -75 179 0 330 63 457 189 58 58 81 92 117 165 54 114 68 174 68 288 0
114 -14 174 -68 288 -115 240 -381 384 -649 352z"/>
</g>
</svg>
