<?xml version="1.0" standalone="no"?>

<svg version="1.0" xmlns="http://www.w3.org/2000/svg"
 width="256.000000pt" height="256.000000pt" viewBox="0 0 256.000000 256.000000"
 preserveAspectRatio="xMidYMid meet">

<g transform="translate(0.000000,256.000000) scale(0.100000,-0.100000)"
fill="#000000" stroke="none">
<path d="M193 2080 l192 -320 895 0 895 0 192 320 192 320 -1279 0 -1279 0
192 -320z"/>
<path d="M673 1280 l192 -320 415 0 415 0 192 320 192 320 -799 0 -799 0 192
-320z"/>
<path d="M960 480 l0 -320 320 0 320 0 0 320 0 320 -320 0 -320 0 0 -320z"/>
</g>
</svg>
