<?xml version="1.0" standalone="no"?>

<svg version="1.0" xmlns="http://www.w3.org/2000/svg"
 width="200.000000pt" height="200.000000pt" viewBox="0 0 200.000000 200.000000"
 preserveAspectRatio="xMidYMid meet">

<g transform="translate(0.000000,200.000000) scale(0.100000,-0.100000)"
fill="#000000" stroke="none">
<path d="M545 1571 c-22 -10 -54 -34 -72 -52 -63 -67 -63 -66 -63 -521 0 -461
0 -457 71 -525 58 -55 91 -63 259 -63 l150 0 0 205 0 205 -63 0 c-36 0 -68 5
-75 12 -18 18 -16 152 2 168 9 7 40 10 78 9 l63 -3 5 105 c7 147 41 205 139
238 42 14 160 15 196 1 25 -9 26 -13 23 -77 l-3 -68 -60 -8 c-84 -11 -105 -35
-105 -125 l0 -67 67 3 c38 1 73 -1 80 -6 9 -6 9 -26 0 -92 l-12 -85 -67 -3
-68 -3 0 -204 0 -205 163 0 c182 0 215 9 274 71 63 67 63 66 63 519 0 453 0
452 -63 519 -68 71 -64 71 -527 71 -383 0 -418 -2 -455 -19z"/>
</g>
</svg>
