<?xml version="1.0" standalone="no"?>
<!DOCTYPE svg PUBLIC "-//W3C//DTD SVG 20010904//EN"
 "http://www.w3.org/TR/2001/REC-SVG-20010904/DTD/svg10.dtd">
<svg version="1.0" xmlns="http://www.w3.org/2000/svg"
 width="225.000000pt" height="225.000000pt" viewBox="0 0 225.000000 225.000000"
 preserveAspectRatio="xMidYMid meet">

<g transform="translate(0.000000,225.000000) scale(0.100000,-0.100000)"
fill="#000000" stroke="none">
<path d="M952 2008 c-9 -9 -12 -100 -12 -350 l0 -338 -241 0 c-268 0 -283 -3
-338 -66 -17 -18 -35 -51 -42 -73 -11 -38 -13 -39 -41 -29 -62 22 -129 -10
-159 -76 -17 -37 -19 -69 -19 -301 0 -293 3 -310 73 -354 37 -24 37 -25 37
-91 0 -84 14 -100 89 -100 58 0 60 2 150 112 l46 58 236 0 236 0 54 -67 c83
-103 82 -103 142 -103 73 0 87 16 87 103 0 63 1 67 29 82 16 8 40 28 53 45
l24 30 234 -2 234 -3 32 -75 c18 -41 37 -81 44 -88 11 -12 135 -17 164 -6 13
5 16 23 16 90 0 81 1 84 23 84 13 0 28 5 35 12 17 17 17 1489 0 1506 -17 17
-1169 17 -1186 0z m558 -548 l0 -490 -75 0 -75 0 0 35 c0 102 -92 177 -178
147 -27 -9 -29 -8 -45 38 -17 49 -84 120 -112 120 -13 0 -15 42 -15 320 l0
320 250 0 250 0 0 -490z m570 0 l0 -490 -250 0 -250 0 0 490 0 490 250 0 250
0 0 -490z m-1060 -225 c52 -27 60 -58 60 -220 l0 -145 -27 7 c-38 11 -611 10
-645 -1 l-28 -8 0 142 c0 157 9 193 58 222 24 15 60 18 290 18 216 0 268 -3
292 -15z m-733 -167 c23 -21 23 -25 23 -233 0 -151 3 -214 12 -223 17 -17 799
-17 816 0 9 9 12 72 12 220 0 208 0 209 25 233 32 33 68 32 94 -1 20 -25 21
-39 21 -288 0 -250 -1 -263 -20 -284 l-21 -22 -519 0 -519 0 -20 26 c-20 25
-21 39 -21 286 l0 259 25 24 c30 31 62 32 92 3z m1223 -338 l0 -170 -75 0 -75
0 0 170 0 170 75 0 75 0 0 -170z m570 0 l0 -170 -250 0 -250 0 0 170 0 170
250 0 250 0 0 -170z m-1047 78 c35 -18 46 -40 47 -90 l0 -48 -350 0 -350 0 0
46 c0 37 5 51 29 75 l29 29 287 0 c198 0 293 -4 308 -12z m977 -373 l0 -55
-34 0 c-35 0 -33 -3 -73 98 -4 9 10 12 51 12 l56 0 0 -55z m-1616 -47 c-29
-48 -70 -88 -91 -88 -21 0 -23 4 -23 50 l0 50 61 0 c45 0 58 -3 53 -12z m786
-38 c0 -46 -2 -50 -23 -50 -21 0 -33 11 -85 82 -12 17 -9 18 47 18 l61 0 0
-50z"/>
<path d="M1387 1673 c-4 -3 -7 -97 -7 -208 0 -173 2 -204 16 -216 11 -9 20
-10 32 -2 15 9 17 36 20 199 3 217 1 234 -32 234 -12 0 -26 -3 -29 -7z"/>
<path d="M1647 1673 c-4 -3 -7 -100 -7 -215 0 -184 2 -209 16 -215 9 -3 24 -2
33 4 14 9 16 39 19 208 2 137 -1 202 -9 211 -12 15 -41 19 -52 7z"/>
<path d="M1412 798 c-7 -7 -12 -37 -12 -69 0 -60 14 -84 47 -77 15 3 18 14 18
78 0 68 -2 75 -20 78 -11 1 -26 -3 -33 -10z"/>
<path d="M1621 791 c-15 -28 -14 -104 2 -125 7 -10 22 -16 33 -14 17 3 19 12
19 78 0 69 -2 75 -22 78 -14 2 -26 -4 -32 -17z"/>
</g>
</svg>
