<svg id="Capa_1" xmlns="http://www.w3.org/2000/svg" viewBox="0 0 40 40">
  <path fill="#ffc107" d="m39.61,16.08h-1.61v-.08h-18v8h11.3c-1.65,4.66-6.08,8-11.3,8-6.63,0-12-5.37-12-12s5.37-12,12-12c3.06,0,5.84,1.15,7.96,3.04l5.66-5.66C30.05,2.05,25.27,0,20,0,8.95,0,0,8.95,0,20s8.95,20,20,20,20-8.96,20-20c0-1.34-.14-2.65-.39-3.92Z"/>
  <path fill="#ff3d00" d="m2.31,10.69l6.57,4.82c1.78-4.4,6.08-7.51,11.12-7.51,3.06,0,5.84,1.15,7.96,3.04l5.66-5.66C30.05,2.05,25.27,0,20,0,12.32,0,5.66,4.34,2.31,10.69Z"/>
  <path fill="#4caf50" d="m20,40c5.17,0,9.86-1.98,13.41-5.19l-6.19-5.24c-2.01,1.52-4.5,2.43-7.22,2.43-5.2,0-9.62-3.32-11.28-7.95l-6.52,5.03c3.31,6.48,10.03,10.92,17.8,10.92Z"/>
  <path fill="#1976d2" d="m39.61,16.08h-1.61v-.08h-18v8h11.3c-.79,2.24-2.23,4.17-4.09,5.57,0,0,0,0,0,0l6.19,5.24c-.44.4,6.59-4.81,6.59-14.81,0-1.34-.14-2.65-.39-3.92Z"/>
</svg>
