<svg id="svg" xmlns="http://www.w3.org/2000/svg" xmlns:xlink="http://www.w3.org/1999/xlink" width="400" height="300.44444444444446" viewBox="0, 0, 400,300.44444444444446"><g id="svgg"><path id="path0" d="M192.222 4.685 C 186.600 6.752,180.400 9.029,178.444 9.744 C 172.257 12.007,139.577 23.830,133.556 25.984 C 130.378 27.120,125.678 28.827,123.111 29.778 C 120.544 30.728,108.144 35.228,95.556 39.778 C 82.967 44.328,70.567 48.827,68.000 49.776 C 65.433 50.725,57.533 53.597,50.444 56.158 C 43.356 58.720,32.756 62.549,26.889 64.669 C 12.609 69.828,9.452 71.600,8.618 74.923 C 7.584 79.045,11.104 81.668,23.875 86.295 C 27.977 87.781,34.333 90.091,38.000 91.428 C 41.667 92.766,47.467 94.867,50.889 96.097 C 54.311 97.328,57.570 98.507,58.131 98.719 C 59.116 99.091,59.055 99.213,56.308 102.362 C 44.783 115.577,39.992 129.907,39.255 153.369 L 38.981 162.070 36.948 163.146 C 24.200 169.893,23.160 189.901,35.111 198.486 L 37.185 199.977 36.792 202.988 C 33.605 227.465,22.243 253.604,4.225 277.910 C 2.087 280.793,0.412 283.196,0.502 283.249 C 0.593 283.302,1.667 284.153,2.889 285.140 C 10.810 291.537,17.849 295.842,25.299 298.848 C 29.448 300.522,31.118 299.993,38.073 294.800 C 56.098 281.342,61.045 260.218,57.940 209.962 L 57.224 198.369 59.351 196.185 C 67.291 188.029,67.035 173.926,58.805 166.200 L 56.224 163.778 56.355 160.222 C 57.211 136.946,64.163 118.688,76.090 108.395 C 78.535 106.284,79.487 105.820,95.111 99.103 C 100.122 96.949,108.222 93.451,113.111 91.330 C 118.000 89.209,127.100 85.272,133.333 82.582 C 139.567 79.892,146.967 76.688,149.778 75.462 C 152.589 74.237,156.689 72.476,158.889 71.549 C 161.089 70.622,166.089 68.472,170.000 66.770 C 200.424 53.533,202.303 52.784,204.523 52.997 C 212.253 53.740,215.381 64.358,209.485 69.841 C 208.791 70.487,204.822 72.461,200.667 74.227 C 196.511 75.993,190.911 78.395,188.222 79.564 C 185.533 80.733,180.633 82.833,177.333 84.231 C 174.033 85.628,169.133 87.725,166.444 88.890 C 163.756 90.055,148.806 96.454,133.222 103.110 C 117.639 109.766,104.889 115.367,104.889 115.557 C 104.889 115.748,105.439 116.041,106.111 116.209 C 106.783 116.378,109.133 117.185,111.333 118.004 C 113.533 118.823,120.133 121.218,126.000 123.328 C 131.867 125.437,138.767 127.941,141.333 128.892 C 146.320 130.740,163.872 137.107,172.667 140.259 C 175.600 141.310,182.700 143.897,188.444 146.008 C 205.872 152.413,204.917 152.114,207.111 151.849 C 208.211 151.716,212.911 150.190,217.556 148.458 C 222.200 146.726,228.400 144.429,231.333 143.354 C 234.267 142.278,239.367 140.399,242.667 139.179 C 245.967 137.958,252.567 135.538,257.333 133.801 C 262.100 132.064,268.100 129.858,270.667 128.899 C 273.233 127.939,279.233 125.730,284.000 123.989 C 298.826 118.574,319.072 111.136,325.111 108.884 C 328.289 107.699,332.789 106.040,335.111 105.197 C 337.433 104.354,342.733 102.419,346.889 100.897 C 351.044 99.375,357.044 97.178,360.222 96.015 C 393.321 83.908,393.458 83.854,396.263 82.014 C 403.984 76.947,400.442 72.083,384.916 66.435 C 372.677 61.982,354.392 55.267,343.778 51.328 C 339.378 49.695,334.478 47.897,332.889 47.332 C 331.300 46.767,326.100 44.866,321.333 43.108 C 311.569 39.506,302.380 36.128,292.889 32.653 C 289.344 31.355,283.744 29.296,280.444 28.078 C 274.237 25.787,248.807 16.427,237.111 12.128 C 233.444 10.780,228.544 8.987,226.222 8.142 C 223.900 7.297,218.545 5.320,214.322 3.748 C 204.312 0.021,204.982 -0.008,192.222 4.685 M324.667 133.796 C 322.222 134.736,316.322 136.928,311.556 138.667 C 306.789 140.406,301.089 142.508,298.889 143.339 C 296.689 144.170,290.989 146.271,286.222 148.008 C 277.759 151.093,271.018 153.569,260.222 157.556 C 257.289 158.640,251.389 160.813,247.111 162.386 C 227.718 169.516,220.655 172.125,214.444 174.456 C 206.124 177.577,205.945 177.570,195.556 173.649 C 191.278 172.035,184.078 169.391,179.556 167.773 C 171.657 164.948,164.080 162.197,152.667 158.013 C 149.733 156.937,143.633 154.729,139.111 153.105 C 134.589 151.481,128.489 149.275,125.556 148.203 C 111.305 142.995,106.255 141.164,98.667 138.454 C 94.144 136.840,89.194 135.044,87.667 134.464 L 84.889 133.409 84.889 148.747 L 84.889 164.086 86.612 166.043 C 95.237 175.842,95.990 193.823,88.263 205.465 L 86.558 208.033 87.345 210.128 C 89.284 215.287,90.762 216.867,96.914 220.356 C 160.011 256.140,243.785 255.718,313.110 219.267 C 321.469 214.872,325.801 210.992,328.525 205.460 L 330.000 202.464 330.119 167.232 C 330.214 139.001,330.126 132.009,329.675 132.043 C 329.365 132.067,327.111 132.856,324.667 133.796 " stroke="none" fill="#000000" fill-rule="evenodd"></path></g></svg>