<?xml version="1.0" standalone="no"?>

<svg version="1.0" xmlns="http://www.w3.org/2000/svg"
 width="225.000000pt" height="225.000000pt" viewBox="0 0 225.000000 225.000000"
 preserveAspectRatio="xMidYMid meet">
<metadata>
Created by potrace 1.16, written by Peter Selinger 2001-2019
</metadata>
<g transform="translate(0.000000,225.000000) scale(0.100000,-0.100000)"
fill="#000000" stroke="none">
<path d="M920 2126 c-405 -94 -695 -382 -791 -783 -18 -76 -20 -109 -16 -248
3 -103 10 -181 21 -218 104 -372 382 -650 745 -742 136 -35 363 -36 494 0 366
97 646 377 742 742 36 135 36 355 0 494 -92 363 -369 641 -742 745 -77 22
-375 28 -453 10z m288 -396 c126 -16 209 -67 255 -155 16 -31 21 -59 21 -125
1 -126 -23 -169 -175 -312 -103 -96 -120 -117 -125 -150 l-7 -38 -55 0 -55 0
6 51 c7 57 36 122 102 224 51 81 75 161 75 255 0 89 -22 131 -77 148 -32 10
-50 11 -83 2 -48 -13 -70 -51 -70 -122 0 -49 -6 -60 -37 -77 -67 -35 -133 7
-133 84 0 61 19 103 65 143 43 38 68 50 145 68 69 15 61 15 148 4z m-18 -955
c99 -51 99 -204 0 -256 -90 -49 -195 4 -216 108 -9 44 26 117 68 143 39 24
107 26 148 5z"/>
</g>
</svg>
