<?xml version="1.0" standalone="no"?>
<!DOCTYPE svg PUBLIC "-//W3C//DTD SVG 20010904//EN"
    "http://www.w3.org/TR/2001/REC-SVG-20010904/DTD/svg10.dtd">
<svg version="1.0" xmlns="http://www.w3.org/2000/svg"
    width="512.000000pt" height="512.000000pt" viewBox="0 0 225.000000 225.000000"
    preserveAspectRatio="xMidYMid meet">

    <g transform="translate(0.000000,225.000000) scale(0.100000,-0.100000)"
        fill="#000000" stroke="none">
        <path d="M545 2120 c-381 -52 -622 -449 -519 -853 49 -196 194 -391 478 -646
190 -170 537 -466 563 -479 28 -15 88 -15 116 0 58 30 657 557 762 670 238
255 332 490 296 741 -44 311 -255 530 -547 567 -188 24 -354 -38 -501 -186
l-71 -73 -41 49 c-132 156 -338 237 -536 210z"/>
    </g>
</svg>