<svg width="512" height="512" viewBox="0 0 512 512" xmlns="http://www.w3.org/2000/svg">
    <g transform="scale(1.15 1.25)">
        <path
            d="M119.4,100.8l-106.2,95.7 20.9,0.3 20.9,0.2 0,86.3c0,97 -0.2,93.5 6.9,100 2.2,2 5.7,4 7.8,4.6 2.5,0.7 23,1.1 58.6,1.1l54.7,0 0,-74.5 0,-74.5 43,0 43,0 0,74.5 0,74.5 54.8,0c37,0 56,-0.4 58.7,-1.1 6.1,-1.7 12,-8.2 13.4,-14.7 0.8,-3.7 1.1,-31 1.1,-90.7l0,-85.5 20.9,-0.2 20.9,-0.3 -106.1,-95.5c-58.3,-52.5 -106.3,-95.6 -106.6,-95.7 -0.3,-0.1 -48.4,42.9 -106.7,95.5z"

        stroke="none"/>
    </g>
</svg>