<?xml version="1.0" standalone="no"?>

<svg version="1.0" xmlns="http://www.w3.org/2000/svg"
 width="512.000000pt" height="512.000000pt" viewBox="0 0 512.000000 512.000000"
 preserveAspectRatio="xMidYMid meet">

<g transform="translate(0.000000,512.000000) scale(0.100000,-0.100000)"
fill="#000000" stroke="none">
<path d="M1790 4470 c-85 -4 -195 -15 -244 -24 -483 -91 -779 -385 -871 -867
-24 -131 -35 -426 -35 -1019 0 -792 12 -979 77 -1184 91 -290 303 -522 577
-631 94 -37 233 -71 347 -85 133 -17 1342 -25 1629 -11 236 11 340 26 474 68
322 100 558 336 659 659 65 205 77 392 77 1184 0 593 -11 888 -35 1019 -91
479 -387 775 -866 866 -46 8 -172 20 -279 25 -223 11 -1277 11 -1510 0z m1580
-350 c254 -19 409 -79 540 -210 133 -132 192 -287 210 -545 13 -182 13 -1428
0 -1610 -18 -258 -77 -413 -210 -545 -131 -131 -286 -191 -540 -210 -175 -13
-1445 -13 -1620 0 -254 19 -409 79 -541 210 -130 130 -191 286 -209 540 -13
175 -13 1445 0 1620 5 74 19 171 30 215 83 325 321 507 698 534 160 12 1486
12 1642 1z"/>
<path d="M3543 3809 c-217 -39 -256 -340 -55 -431 113 -51 249 -3 302 107 24
49 29 131 10 180 -39 103 -147 163 -257 144z"/>
<path d="M2455 3540 c-391 -41 -730 -325 -839 -703 -152 -524 148 -1071 669
-1222 537 -155 1091 164 1231 710 29 115 36 305 15 410 -41 202 -135 381 -275
521 -211 211 -504 314 -801 284z m239 -355 c289 -61 506 -329 506 -625 0 -348
-292 -640 -640 -640 -237 0 -468 143 -569 352 -94 194 -94 382 0 576 123 255
420 397 703 337z"/>
</g>
</svg>
