<?xml version="1.0" standalone="no"?>

<svg version="1.0" xmlns="http://www.w3.org/2000/svg"
 width="920.000000pt" height="798.000000pt" viewBox="0 0 920.000000 798.000000"
 preserveAspectRatio="xMidYMid meet">

<g transform="translate(0.000000,798.000000) scale(0.100000,-0.100000)"
fill="#000000" stroke="none">
<path d="M3590 7955 c-467 -63 -872 -228 -1240 -506 -546 -413 -910 -1032
-1006 -1714 -26 -178 -23 -497 5 -680 42 -277 119 -523 241 -770 136 -276 284
-479 507 -695 136 -133 242 -217 393 -312 73 -46 89 -59 74 -64 -765 -273
-1423 -776 -1906 -1456 -219 -310 -416 -704 -533 -1065 -34 -106 -107 -399
-120 -478 -7 -49 17 -86 102 -158 l58 -47 3752 0 3753 0 41 52 c47 60 89 139
89 168 0 11 -20 98 -44 192 -117 457 -334 926 -612 1324 -249 358 -630 740
-984 986 -284 197 -597 356 -949 480 -22 8 -16 13 65 62 198 120 447 340 597
526 300 372 483 798 553 1285 24 166 24 486 0 655 -81 566 -331 1066 -736
1470 -200 200 -388 341 -620 463 -264 140 -522 225 -820 272 -145 23 -520 29
-660 10z"/>
<path d="M7510 5171 c-74 -24 -136 -75 -173 -145 -22 -40 -22 -49 -25 -483
l-3 -443 -422 0 c-256 0 -436 -4 -459 -10 -63 -18 -129 -70 -162 -130 -31 -55
-31 -55 -34 -237 -5 -230 5 -272 81 -347 29 -28 70 -58 92 -66 32 -11 131 -15
473 -17 l432 -4 0 -418 c0 -468 2 -485 67 -560 20 -24 60 -54 87 -67 48 -22
62 -24 245 -24 121 0 209 4 233 12 61 18 133 89 157 154 20 52 21 75 21 479
l0 424 438 3 c500 4 487 2 567 90 68 76 78 121 73 341 -3 180 -3 183 -33 236
-16 29 -45 66 -64 82 -70 58 -84 59 -553 59 l-428 0 0 423 c0 256 -4 436 -10
459 -18 63 -70 129 -130 162 l-55 31 -195 2 c-107 1 -206 -2 -220 -6z"/>
</g>
</svg>
