<?xml version="1.0" standalone="no"?>

<svg version="1.0" xmlns="http://www.w3.org/2000/svg"
 width="225.000000pt" height="225.000000pt" viewBox="0 0 225.000000 225.000000"
 preserveAspectRatio="xMidYMid meet">

<g transform="translate(0.000000,225.000000) scale(0.100000,-0.100000)"
fill="#000000" stroke="none">
<path d="M2092 2203 c-38 -27 -520 -363 -1070 -748 -743 -519 -1004 -707
-1013 -728 -15 -36 1 -74 37 -87 15 -6 172 -10 377 -10 l352 0 -3 -267 c-3
-282 2 -334 39 -354 11 -5 33 -7 49 -4 25 5 49 37 161 216 73 115 135 209 138
209 3 0 184 -97 401 -215 217 -118 403 -215 413 -215 22 0 67 43 67 65 0 8 47
490 105 1070 77 772 102 1061 95 1075 -12 22 -41 40 -64 40 -8 0 -46 -21 -84
-47z m-96 -1167 c-46 -460 -86 -840 -90 -843 -3 -3 -156 76 -340 176 l-335
183 106 166 c58 92 247 391 421 665 173 273 316 496 318 494 2 -2 -34 -380
-80 -841z m-312 702 c-117 -134 -869 -961 -878 -964 -6 -2 -124 -3 -261 -2
l-250 3 700 492 c385 270 702 492 704 492 2 1 -4 -9 -15 -21z m-20 -240 c-32
-56 -730 -1156 -741 -1168 -11 -12 -13 14 -13 165 l1 180 341 375 c187 206
356 394 376 418 36 42 50 53 36 30z"/>
</g>
</svg>
