<?xml version="1.0" standalone="no"?>

<svg version="1.0" xmlns="http://www.w3.org/2000/svg"
 width="225.000000pt" height="225.000000pt" viewBox="0 0 225.000000 225.000000"
 preserveAspectRatio="xMidYMid meet">

<g transform="translate(0.000000,225.000000) scale(0.100000,-0.100000)"
fill="#000000" stroke="none">
<path d="M943 2145 c-493 -89 -853 -519 -853 -1020 0 -452 294 -852 725 -988
411 -130 882 20 1134 361 465 631 118 1512 -649 1647 -102 18 -258 18 -357 0z
m259 -71 c37 -6 38 -8 86 -123 49 -116 112 -298 112 -325 0 -11 -24 -16 -97
-21 -122 -10 -433 1 -447 15 -13 13 48 202 111 347 39 88 48 102 71 106 45 7
125 7 164 1z m-318 -100 c-19 -41 -55 -134 -79 -205 -24 -72 -46 -133 -49
-136 -13 -14 -349 57 -370 77 -11 11 80 108 156 166 71 55 189 119 276 150
105 37 106 36 66 -52z m539 55 c83 -27 213 -97 285 -153 74 -56 176 -166 165
-177 -15 -15 -369 -87 -378 -77 -1 2 -23 65 -48 140 -25 75 -61 171 -81 212
-40 87 -39 87 57 55z m-808 -464 c129 -22 127 -22 121 -43 -12 -36 -36 -230
-36 -289 l0 -63 -265 0 -265 0 4 23 c3 12 8 46 11 75 9 77 51 205 96 293 l40
76 97 -27 c53 -15 142 -35 197 -45z m1370 -37 c48 -103 73 -188 84 -290 l7
-68 -263 0 -263 0 0 65 c0 59 -23 246 -35 286 -5 14 12 19 102 33 60 9 149 27
198 40 50 13 98 25 108 25 14 1 30 -23 62 -91z m-985 -8 c98 -5 218 -6 295 -1
72 5 131 8 132 7 6 -5 33 -195 39 -268 l7 -88 -348 0 -348 0 7 93 c7 102 35
267 45 267 3 0 80 -5 171 -10z m-300 -505 c0 -63 21 -224 39 -306 7 -29 6 -41
-2 -44 -7 -2 -55 -11 -107 -20 -52 -10 -138 -29 -190 -42 -111 -29 -97 -38
-170 112 -47 98 -84 222 -93 318 l-5 47 264 0 264 0 0 -65z m770 23 c0 -51
-24 -231 -40 -303 l-11 -50 -294 0 -294 0 -11 50 c-16 72 -40 252 -40 303 l0
42 345 0 345 0 0 -42z m606 20 c-3 -13 -8 -47 -11 -76 -11 -100 -79 -279 -144
-380 -7 -11 -27 -9 -112 12 -57 14 -149 32 -204 41 -55 9 -101 17 -102 19 -2
1 2 18 7 36 15 54 40 245 40 310 l0 60 265 0 265 0 -4 -22z m-798 -455 l114
-6 -7 -36 c-8 -43 -75 -222 -117 -313 l-30 -66 -50 -7 c-27 -4 -78 -4 -113 0
l-64 6 -49 117 c-60 144 -106 281 -97 290 6 7 127 17 245 20 30 1 106 -1 168
-5z m332 -33 c105 -18 240 -51 240 -60 0 -13 -133 -134 -190 -171 -73 -48
-163 -93 -238 -118 -91 -31 -97 -29 -72 20 28 54 95 226 115 295 18 62 -1 58
145 34z m-796 -115 c23 -66 56 -151 73 -188 37 -77 35 -78 -59 -46 -80 27
-191 82 -253 127 -58 42 -165 141 -165 153 0 10 51 24 195 55 170 36 160 41
209 -101z"/>
</g>
</svg>
