<?xml version="1.0" standalone="no"?>

<svg version="1.0" xmlns="http://www.w3.org/2000/svg"
 width="900.000000pt" height="900.000000pt" viewBox="0 0 900.000000 900.000000"
 preserveAspectRatio="xMidYMid meet">

<g transform="translate(0.000000,900.000000) scale(0.100000,-0.100000)"
fill="#000000" stroke="none">
<path d="M4290 8094 c-369 -42 -613 -111 -905 -254 -515 -253 -914 -653 -1170
-1175 -123 -251 -209 -544 -246 -840 -30 -235 -11 -559 47 -840 145 -696 574
-1568 1233 -2510 298 -426 536 -736 777 -1010 143 -163 357 -419 429 -512 22
-29 43 -51 46 -50 3 1 70 76 149 167 78 91 226 257 329 369 429 470 898 1099
1243 1669 440 728 702 1391 792 2002 82 562 5 1078 -234 1565 -278 565 -742
999 -1324 1240 -291 120 -568 175 -911 180 -121 2 -236 1 -255 -1z m480 -1423
c296 -81 528 -246 687 -489 255 -387 253 -890 -3 -1275 -340 -510 -1005 -666
-1531 -359 -150 88 -300 233 -391 377 -386 617 -117 1440 556 1700 156 60 253
75 442 71 126 -3 183 -9 240 -25z"/>
</g>
</svg>
