<?xml version="1.0" standalone="no"?>
<svg version="1.0" xmlns="http://www.w3.org/2000/svg"
 width="512.000000pt" height="512.000000pt" viewBox="0 0 512.000000 512.000000"
 preserveAspectRatio="xMidYMid meet">

<g transform="translate(0.000000,512.000000) scale(0.100000,-0.100000)"
fill="#000000" stroke="none">
<path d="M3241 4935 c-1324 -149 -1651 -188 -1680 -203 -20 -10 -49 -38 -66
-61 l-30 -43 -3 -1654 c-1 -910 -5 -1654 -7 -1654 -3 0 -31 13 -63 29 -280
141 -644 148 -926 17 -303 -139 -482 -400 -463 -671 22 -315 277 -570 664
-667 74 -19 115 -22 253 -22 145 1 177 4 263 27 315 84 535 273 623 537 18 52
19 124 22 1487 l2 1433 23 4 c12 3 657 75 1432 161 776 86 1422 158 1438 161
l27 6 0 -1071 0 -1070 -94 45 c-504 238 -1139 39 -1323 -416 -163 -405 176
-853 706 -930 118 -18 332 -8 441 20 312 80 554 297 620 556 20 76 20 119 20
2047 l0 1971 -21 44 c-29 60 -82 93 -156 97 -33 2 -753 -74 -1702 -180z"/>
</g>
</svg>
