<?xml version="1.0" standalone="no"?>

<svg version="1.0" xmlns="http://www.w3.org/2000/svg"
 width="900.000000pt" height="980.000000pt" viewBox="0 0 900.000000 980.000000"
 preserveAspectRatio="xMidYMid meet">

<g transform="translate(0.000000,980.000000) scale(0.100000,-0.100000)"
fill="#000000" stroke="none">
<path d="M1987 9784 c-325 -59 -594 -307 -687 -634 -33 -113 -38 -288 -12
-411 69 -333 329 -599 664 -679 101 -24 275 -27 376 -5 406 85 701 447 702
862 1 552 -496 966 -1043 867z"/>
<path d="M6300 9309 c-163 -28 -338 -119 -465 -244 -341 -336 -354 -873 -29
-1223 109 -119 226 -192 394 -248 79 -26 97 -28 245 -28 184 -1 260 15 399 85
98 49 143 81 229 167 172 168 257 378 257 630 0 427 -317 795 -740 862 -77 12
-213 11 -290 -1z"/>
<path d="M1624 7872 c4 -15 26 -144 51 -286 24 -142 46 -260 47 -262 2 -1 97
51 212 117 114 65 213 119 220 118 6 0 103 -53 216 -118 113 -66 207 -117 209
-115 3 3 100 548 101 566 0 3 -119 -49 -264 -116 l-264 -123 -204 94 c-111 52
-231 108 -266 123 l-63 29 5 -27z"/>
<path d="M853 7805 c-29 -8 -85 -30 -125 -49 -221 -105 -389 -274 -457 -459
l-26 -72 0 -1560 0 -1560 34 -63 c89 -163 274 -222 439 -138 58 30 126 101
155 164 20 43 22 61 20 232 -1 102 -6 325 -12 495 -39 1161 -15 1833 70 1924
24 26 31 26 51 4 55 -63 88 -324 108 -848 27 -739 30 -1051 30 -3163 0 -1609
3 -2256 11 -2294 18 -86 58 -158 123 -224 247 -246 652 -130 741 213 13 49 15
264 15 1595 l0 1538 125 0 125 0 0 -1554 c0 -1528 0 -1555 20 -1619 50 -162
208 -287 384 -304 177 -16 349 85 434 256 l37 75 6 2380 c5 2280 10 2694 39
3261 23 458 67 705 125 705 89 0 330 -811 640 -2154 41 -177 79 -352 85 -391
17 -112 37 -160 90 -219 157 -170 432 -138 534 62 14 28 95 238 180 468 252
685 508 1360 520 1372 2 1 46 -70 99 -160 70 -122 98 -180 109 -229 l15 -66
-114 -219 c-271 -516 -429 -878 -563 -1289 -258 -794 -398 -1833 -481 -3571
-12 -270 -10 -285 54 -324 31 -20 65 -20 1950 -20 1755 0 1922 1 1953 16 65
31 67 45 65 369 -12 1890 -198 3118 -619 4095 -135 314 -336 665 -509 893 -25
31 -43 61 -41 66 9 22 234 401 238 401 3 0 25 -51 49 -113 130 -337 289 -756
451 -1192 100 -269 190 -504 201 -522 49 -78 159 -143 243 -143 98 0 207 71
256 166 21 42 25 63 25 144 l0 95 -117 310 c-143 380 -139 368 -413 1135 -447
1252 -525 1455 -578 1516 -87 99 -154 120 -417 134 -243 13 -1379 13 -1592 0
-261 -16 -357 -58 -425 -186 -44 -84 -246 -631 -589 -1593 l-108 -303 -24 88
c-13 49 -80 292 -149 539 -215 775 -264 985 -278 1195 -11 162 -42 251 -130
375 -75 106 -194 204 -330 273 -116 58 -143 62 -436 62 l-268 0 -24 -77 c-13
-43 -181 -608 -373 -1255 -191 -648 -351 -1178 -354 -1178 -5 0 -728 2437
-738 2488 l-4 22 -252 -1 c-182 0 -265 -4 -303 -14z m5198 -1205 c156 -30 318
-179 375 -347 19 -58 34 -72 34 -34 0 28 59 142 101 195 113 142 274 215 411
187 150 -31 267 -131 350 -295 l35 -69 -87 -141 c-231 -375 -318 -578 -308
-720 4 -56 11 -72 91 -197 324 -511 548 -1055 712 -1724 170 -694 248 -1362
320 -2745 8 -162 18 -310 21 -327 l5 -33 -1661 0 -1660 0 0 44 c0 64 28 539
45 776 124 1667 414 2816 1003 3973 l97 192 -1 75 c-2 141 -106 394 -294 714
-60 102 -80 145 -76 161 3 13 29 58 57 100 74 110 173 183 284 211 64 16 81
16 146 4z"/>
</g>
</svg>
