<?xml version="1.0" standalone="no"?>

<svg version="1.0" xmlns="http://www.w3.org/2000/svg"
 width="1300.000000pt" height="1300.000000pt" viewBox="0 0 1300.000000 1300.000000"
 preserveAspectRatio="xMidYMid meet">

<g transform="translate(0.000000,1300.000000) scale(0.100000,-0.100000)"
fill="#000000" stroke="none">
<path d="M4596 9748 c-55 -42 -56 -47 -56 -548 l0 -460 -45 0 -45 0 0 155 c0
155 0 155 -23 155 -12 0 -33 -7 -45 -16 -22 -15 -22 -17 -22 -288 0 -252 1
-274 18 -289 16 -15 51 -17 289 -17 255 0 271 1 288 19 16 18 17 45 16 288 -1
261 -1 268 -22 286 -12 9 -30 17 -40 17 -18 0 -19 -10 -19 -155 l0 -155 -50 0
-49 0 -3 481 -3 481 -37 34 c-31 28 -46 34 -80 34 -28 -1 -53 -8 -72 -22z"/>
<path d="M5822 9750 c-18 -11 -37 -32 -42 -46 -6 -15 -10 -214 -10 -495 l0
-469 -50 0 -50 0 0 155 0 155 -25 0 c-14 0 -34 -9 -45 -20 -19 -19 -20 -33
-20 -285 0 -252 1 -266 20 -285 19 -19 33 -20 288 -20 147 0 272 4 279 8 25
16 28 58 23 317 -5 285 -5 284 -57 285 -23 0 -23 -1 -23 -155 l0 -155 -50 0
-50 0 0 470 c0 517 0 514 -60 545 -40 21 -89 19 -128 -5z m-12 -364 c0 -2 -8
-10 -17 -17 -16 -13 -17 -12 -4 4 13 16 21 21 21 13z"/>
<path d="M7048 9754 c-58 -31 -58 -30 -58 -544 l0 -470 -50 0 -50 0 0 155 0
155 -23 0 c-54 0 -56 -14 -57 -290 0 -140 0 -263 0 -272 0 -9 7 -24 16 -32 13
-14 53 -16 283 -16 215 0 271 3 287 14 18 14 19 30 22 285 3 261 2 271 -18
291 -11 11 -31 20 -45 20 l-25 0 0 -155 0 -155 -50 0 -50 0 0 470 c0 517 0
514 -60 545 -36 19 -87 19 -122 -1z m32 -239 c13 -14 21 -25 18 -25 -2 0 -15
11 -28 25 -13 14 -21 25 -18 25 2 0 15 -11 28 -25z m80 -80 c13 -14 21 -25 18
-25 -2 0 -15 11 -28 25 -13 14 -21 25 -18 25 2 0 15 -11 28 -25z"/>
<path d="M8275 9759 c-11 -6 -29 -22 -40 -37 -19 -26 -20 -45 -23 -504 l-3
-478 -49 0 -50 0 0 155 c0 142 -2 155 -18 155 -10 0 -28 -7 -40 -16 -22 -15
-22 -17 -22 -288 0 -252 1 -274 18 -289 16 -15 51 -17 289 -17 249 0 271 1
286 18 15 16 17 51 17 290 l0 272 -25 16 c-13 8 -32 14 -42 12 -16 -3 -18 -17
-18 -156 l0 -152 -47 0 -48 0 0 460 c0 500 -1 505 -55 548 -30 24 -94 29 -130
11z"/>
<path d="M4063 9445 c-67 -15 -87 -23 -151 -67 -40 -28 -121 -123 -126 -150
-2 -7 -12 -31 -22 -53 -19 -39 -19 -116 -19 -3070 0 -2903 1 -3032 18 -3085
40 -119 129 -211 255 -262 l57 -23 1199 -3 1199 -3 36 33 c20 18 32 29 28 24
-4 -5 -1 -16 6 -25 10 -14 10 -14 -4 -4 -13 11 -19 9 -34 -7 l-18 -20 1219 2
1219 3 57 23 c86 35 148 82 195 148 85 120 78 -49 78 1879 l0 1710 -39 0 c-39
0 -40 -2 -123 -119 l-83 -119 0 -1569 c0 -1310 -2 -1574 -14 -1601 -16 -39
-61 -82 -99 -96 -38 -15 -4736 -15 -4787 -1 -41 11 -94 61 -109 103 -8 20 -11
930 -11 3006 l0 2977 23 44 c15 31 35 51 66 67 40 21 57 23 198 23 l154 0 -3
123 -3 122 -150 2 c-96 1 -172 -3 -212 -12z m-202 -302 c13 -16 12 -17 -3 -4
-10 7 -18 15 -18 17 0 8 8 3 21 -13z m5329 -3686 c0 -2 -12 -14 -27 -28 l-28
-24 24 28 c23 25 31 32 31 24z m-5370 -1670 c0 -2 -12 -14 -27 -28 l-28 -24
24 28 c23 25 31 32 31 24z"/>
<path d="M4910 9335 l0 -125 370 0 370 1 0 124 0 125 -370 0 -370 0 0 -125z"/>
<path d="M6130 9335 l0 -125 370 0 370 0 0 125 0 125 -370 0 -370 0 0 -125z"/>
<path d="M7350 9335 l0 -125 370 0 370 0 0 125 0 125 -370 0 -370 0 0 -125z"/>
<path d="M8577 9453 c-4 -3 -7 -60 -7 -125 l0 -118 153 0 c142 0 157 -2 198
-23 86 -46 83 -32 89 -535 l5 -443 75 107 c41 58 96 136 123 172 l47 67 -1
260 c-1 258 -12 372 -36 368 -6 -1 -9 6 -6 17 6 22 -55 118 -99 155 -95 80
-187 105 -394 105 -77 0 -144 -3 -147 -7z"/>
<path d="M9795 8966 c-60 -19 -116 -50 -157 -88 -20 -18 -104 -130 -187 -248
-82 -118 -179 -258 -216 -310 -198 -283 -293 -418 -312 -445 -12 -16 -65 -93
-119 -170 -54 -77 -144 -206 -200 -286 -139 -198 -147 -212 -140 -252 10 -51
48 -86 229 -213 93 -64 190 -132 215 -150 243 -173 308 -206 362 -186 26 10
40 29 343 460 75 105 698 997 760 1087 21 30 44 55 50 54 16 0 88 -93 116
-146 11 -23 21 -55 21 -70 0 -30 -17 -49 -509 -583 -229 -249 -297 -322 -411
-445 -162 -175 -202 -263 -178 -397 9 -52 18 -70 48 -100 34 -35 42 -38 92
-38 44 0 59 4 75 23 42 45 35 116 -16 161 -11 11 -21 26 -21 35 1 26 43 88
106 154 33 35 81 87 108 117 52 58 73 81 481 525 392 425 392 426 400 478 9
60 -9 139 -47 207 -39 70 -128 181 -172 215 -31 23 -33 30 -29 64 3 21 0 71
-7 110 -34 200 -195 371 -409 435 -65 19 -218 20 -276 2z m56 -196 c10 -6 19
-19 19 -30 0 -16 -88 -147 -347 -515 -23 -33 -64 -91 -91 -130 -80 -115 -260
-373 -332 -475 -37 -52 -129 -183 -204 -290 -75 -107 -142 -198 -149 -202 -17
-9 -57 18 -57 38 0 13 31 59 202 303 37 53 91 130 120 172 51 73 172 246 288
411 30 43 73 104 95 135 22 32 105 150 184 263 80 113 162 230 183 262 32 48
46 62 66 67 2 1 12 -4 23 -9z m-681 -1325 c13 -14 21 -25 18 -25 -2 0 -15 11
-28 25 -13 14 -21 25 -18 25 2 0 15 -11 28 -25z m80 -80 c13 -14 21 -25 18
-25 -2 0 -15 11 -28 25 -13 14 -21 25 -18 25 2 0 15 -11 28 -25z m80 -80 c13
-14 21 -25 18 -25 -2 0 -15 11 -28 25 -13 14 -21 25 -18 25 2 0 15 -11 28 -25z
m80 -80 c13 -14 21 -25 18 -25 -2 0 -15 11 -28 25 -13 14 -21 25 -18 25 2 0
15 -11 28 -25z m80 -80 c13 -14 21 -25 18 -25 -2 0 -15 11 -28 25 -13 14 -21
25 -18 25 2 0 15 -11 28 -25z m240 -240 c13 -14 21 -25 18 -25 -2 0 -15 11
-28 25 -13 14 -21 25 -18 25 2 0 15 -11 28 -25z"/>
<path d="M4790 7460 l0 -130 1710 0 1710 0 0 130 0 130 -1710 0 -1710 0 0
-130z"/>
<path d="M8407 6897 c-43 -61 -95 -137 -117 -167 -21 -30 -185 -264 -364 -520
-360 -516 -433 -620 -521 -744 -33 -46 -86 -122 -118 -168 -54 -78 -349 -499
-443 -634 l-43 -61 126 -89 c338 -238 467 -327 481 -328 7 0 36 33 65 75 55
81 234 337 457 654 73 105 174 249 224 320 50 72 109 156 131 187 22 32 65 93
95 136 30 43 96 136 145 207 50 71 113 161 140 201 28 40 113 162 190 271 76
109 162 232 191 273 l51 75 -41 30 c-22 17 -64 46 -92 65 -29 19 -125 87 -215
150 -164 115 -260 180 -263 180 0 0 -36 -51 -79 -113z m127 -173 c27 -26 40
-2 -143 -264 -44 -63 -102 -146 -129 -185 -27 -38 -120 -171 -207 -295 -87
-124 -177 -252 -200 -285 -84 -122 -281 -403 -340 -486 -33 -47 -87 -124 -120
-172 -33 -48 -87 -125 -120 -171 -33 -46 -80 -114 -105 -150 -37 -54 -49 -66
-69 -64 -13 2 -29 11 -35 20 -13 21 -4 37 129 226 213 303 238 340 295 422 33
47 116 166 186 265 70 99 150 214 179 255 102 148 319 456 349 497 17 23 72
101 121 174 159 232 174 248 209 213z"/>
<path d="M4790 6230 l0 -130 1460 0 1460 0 17 28 c10 15 48 69 85 121 38 51
68 97 68 102 0 5 -262 9 -606 9 -437 0 -603 -3 -598 -11 5 -8 1 -8 -14 0 -14
7 -301 11 -946 11 l-926 0 0 -130z"/>
<path d="M4790 4990 l0 -129 1024 -1 1025 0 72 102 c40 57 81 115 91 131 l19
27 -1115 0 -1116 0 0 -130z"/>
<path d="M6751 4503 c-6 -21 -17 -72 -26 -113 -8 -41 -29 -142 -47 -225 -17
-82 -32 -161 -32 -174 -1 -19 20 -39 112 -104 l113 -80 42 23 c23 13 81 49
128 79 48 31 141 90 207 131 68 42 117 79 112 84 -5 5 -59 44 -122 87 -145
100 -229 159 -353 245 -55 39 -105 74 -112 77 -8 5 -15 -5 -22 -30z"/>
<path d="M4790 3760 l0 -130 828 0 828 0 26 123 c14 67 24 125 21 130 -2 4
-386 7 -854 7 l-849 0 0 -130z m691 63 c13 -16 12 -17 -3 -4 -10 7 -18 15 -18
17 0 8 8 3 21 -13z"/>
<path d="M6615 3868 c-51 -224 -53 -238 -32 -238 10 0 202 115 224 134 3 3
-176 126 -182 126 -3 0 -7 -10 -10 -22z"/>
</g>
</svg>
