<?xml version="1.0" standalone="no"?>

<svg version="1.0" xmlns="http://www.w3.org/2000/svg"
 width="360.000000pt" height="360.000000pt" viewBox="0 0 360.000000 360.000000"
 preserveAspectRatio="xMidYMid meet">

<g transform="translate(0.000000,360.000000) scale(0.100000,-0.100000)"
fill="#000000" stroke="none">
<path d="M1638 3435 c-3 -3 -23 -7 -44 -9 -67 -8 -118 -17 -139 -27 -11 -5
-49 -13 -85 -19 -36 -5 -66 -14 -68 -20 -2 -5 -12 -10 -22 -10 -10 0 -25 -6
-32 -12 -17 -16 -78 -38 -106 -38 -12 0 -22 -4 -22 -9 0 -4 -30 -23 -67 -42
-38 -18 -70 -36 -73 -40 -6 -7 -48 -30 -97 -54 -18 -8 -33 -20 -33 -26 0 -5
-4 -7 -10 -4 -5 3 -10 1 -10 -5 0 -6 -11 -15 -25 -20 -14 -5 -28 -16 -31 -25
-3 -8 -10 -12 -15 -9 -5 3 -9 -3 -9 -12 0 -10 -3 -14 -7 -11 -3 4 -19 -9 -36
-28 -16 -19 -33 -32 -38 -29 -5 3 -9 0 -9 -6 0 -15 -25 -40 -40 -40 -6 0 -9
-4 -5 -9 3 -5 -3 -16 -14 -23 -11 -8 -25 -26 -32 -41 -8 -17 -18 -26 -26 -23
-8 3 -12 2 -9 -3 3 -5 -7 -23 -24 -41 -16 -17 -43 -56 -60 -86 -18 -31 -36
-51 -42 -48 -6 4 -8 2 -5 -3 6 -10 -6 -34 -67 -136 -10 -18 -19 -36 -20 -42
-7 -37 -29 -84 -37 -79 -6 3 -9 0 -8 -7 3 -20 -12 -69 -21 -69 -12 0 -46 -149
-41 -179 1 -7 -2 -10 -7 -7 -12 7 -23 -62 -17 -105 4 -25 3 -29 -3 -14 -13 28
-26 -273 -17 -378 16 -196 82 -422 175 -606 107 -213 338 -472 537 -605 250
-166 490 -250 790 -278 287 -26 590 31 858 162 744 363 1102 1226 834 2013
-140 412 -466 774 -861 956 -161 75 -435 150 -493 135 -12 -3 -26 -1 -29 5 -7
11 -327 16 -338 6z m429 -340 c112 -24 219 -62 318 -111 92 -46 227 -133 231
-150 2 -5 -16 -23 -39 -40 -23 -17 -41 -37 -39 -43 1 -7 -1 -10 -6 -7 -4 2
-41 -29 -81 -70 -41 -41 -69 -74 -63 -74 7 0 4 -8 -5 -18 -10 -10 -20 -14 -22
-9 -2 5 -18 -6 -37 -24 -18 -18 -30 -37 -27 -42 3 -6 2 -7 -4 -4 -5 3 -25 -9
-43 -28 -19 -19 -29 -35 -22 -35 7 0 5 -7 -5 -18 -10 -10 -20 -14 -22 -9 -2 5
-16 -4 -32 -19 -15 -15 -27 -30 -25 -33 2 -3 -2 -12 -10 -19 -8 -7 -14 -10
-14 -6 0 4 -13 -5 -30 -21 -16 -16 -30 -35 -30 -42 0 -7 -6 -13 -13 -13 -19 0
-119 -105 -110 -115 5 -4 3 -5 -3 -2 -7 4 -17 0 -24 -8 -9 -10 -9 -15 -1 -15
6 0 3 -8 -6 -18 -10 -10 -20 -14 -22 -9 -2 5 -18 -6 -37 -24 -18 -18 -30 -37
-27 -42 3 -6 2 -7 -4 -4 -5 3 -25 -9 -43 -28 -19 -19 -29 -35 -22 -35 7 0 5
-7 -5 -18 -10 -10 -20 -14 -22 -9 -2 5 -18 -6 -37 -24 -18 -18 -30 -37 -27
-42 3 -6 2 -7 -4 -4 -5 3 -25 -9 -43 -28 -19 -19 -29 -35 -22 -35 7 0 5 -7 -5
-18 -10 -10 -20 -14 -22 -9 -2 5 -18 -6 -37 -24 -18 -18 -30 -37 -27 -42 3 -6
2 -7 -4 -4 -5 3 -25 -9 -43 -28 -19 -19 -29 -35 -22 -35 7 0 5 -7 -5 -18 -10
-10 -20 -14 -22 -9 -2 5 -18 -6 -37 -24 -18 -18 -30 -37 -27 -42 3 -6 2 -7 -4
-4 -5 3 -25 -9 -43 -28 -19 -19 -29 -35 -22 -35 7 0 5 -7 -5 -18 -10 -10 -20
-14 -22 -9 -2 5 -18 -6 -37 -24 -18 -18 -30 -37 -27 -42 3 -6 2 -7 -4 -4 -5 3
-25 -9 -43 -28 -19 -19 -29 -35 -22 -35 7 0 5 -7 -5 -18 -10 -10 -20 -14 -22
-9 -2 5 -18 -6 -37 -24 -18 -18 -30 -37 -27 -42 3 -6 2 -7 -4 -4 -5 3 -25 -9
-43 -28 -19 -19 -29 -35 -22 -35 7 0 5 -7 -5 -18 -12 -12 -21 -14 -25 -8 -7
11 -12 2 -9 -16 0 -5 -5 -8 -13 -8 -20 0 -108 -98 -100 -112 4 -6 3 -8 -4 -4
-5 3 -12 1 -14 -6 -7 -19 -22 -4 -73 73 -96 144 -164 305 -202 482 -25 115
-25 399 0 514 55 257 164 465 341 650 209 220 454 350 751 399 104 17 373 11
472 -11z m804 -492 c12 -15 12 -16 -1 -8 -8 4 0 -7 17 -25 18 -18 30 -37 26
-43 -3 -6 -1 -7 6 -3 12 8 33 -32 24 -47 -2 -4 3 -10 11 -13 9 -3 16 -12 16
-19 0 -7 6 -18 14 -25 8 -6 12 -19 9 -27 -4 -11 -2 -14 5 -9 7 4 13 -3 17 -19
3 -14 7 -36 10 -50 3 -14 10 -23 15 -20 9 6 15 -22 11 -52 -1 -6 3 -14 9 -18
5 -3 10 -16 10 -28 0 -18 2 -19 10 -7 8 11 9 7 4 -14 -4 -16 -2 -31 4 -35 6
-3 15 -25 20 -49 7 -29 7 -40 -1 -35 -7 4 -8 0 -4 -11 4 -10 7 -30 7 -44 0
-19 3 -23 9 -13 10 16 13 -30 13 -214 0 -176 0 -185 -10 -185 -5 0 -9 -21 -11
-47 -1 -26 -6 -53 -12 -59 -5 -6 -7 -19 -3 -28 3 -9 1 -16 -6 -16 -7 0 -9 -8
-5 -19 3 -11 -1 -25 -10 -34 -8 -9 -15 -25 -15 -37 0 -12 -4 -19 -8 -16 -5 3
-9 -9 -9 -26 0 -18 -5 -34 -11 -36 -7 -2 -12 -10 -12 -18 0 -9 -4 -13 -9 -10
-4 3 -6 -5 -4 -18 3 -16 -4 -32 -25 -52 -35 -36 -55 -71 -47 -84 3 -6 2 -10
-4 -10 -6 0 -13 -11 -17 -25 -3 -14 -14 -31 -23 -38 -9 -6 -24 -23 -33 -37
-25 -39 -91 -106 -110 -113 -10 -4 -18 -13 -18 -20 0 -19 -35 -49 -45 -40 -4
5 -5 3 -1 -4 7 -13 -47 -56 -58 -46 -3 3 -6 1 -6 -6 0 -7 -5 -9 -12 -5 -8 5
-9 2 -5 -9 3 -10 3 -17 -1 -17 -5 0 -18 -9 -30 -21 -13 -11 -33 -21 -45 -23
-31 -3 -97 -38 -91 -48 3 -4 -3 -8 -13 -8 -10 0 -25 -5 -33 -11 -12 -9 -11
-10 5 -4 15 4 17 3 9 -5 -6 -6 -25 -12 -42 -12 -17 -1 -30 -6 -29 -12 1 -6 -8
-10 -20 -8 -16 2 -23 -2 -23 -13 0 -13 -6 -16 -25 -11 -18 5 -25 2 -25 -9 0
-13 -33 -21 -64 -16 -4 1 -14 -3 -21 -9 -7 -6 -25 -8 -41 -4 -19 5 -25 4 -20
-4 9 -15 -36 -26 -80 -19 -19 3 -32 2 -29 -2 5 -10 -91 -24 -105 -16 -5 3 -70
6 -144 7 -75 0 -136 4 -136 8 0 5 -33 11 -72 15 -86 8 -110 13 -103 24 2 5
-18 11 -46 15 -27 4 -47 11 -44 15 5 8 -30 22 -66 26 -10 1 -24 9 -34 18 -9 9
-22 17 -28 17 -7 0 -6 -4 3 -10 10 -6 11 -10 3 -10 -7 0 -18 9 -25 20 -7 11
-23 20 -36 20 -13 0 -21 4 -18 9 3 5 -5 12 -19 15 -14 4 -44 24 -66 46 -23 22
-49 40 -58 40 -9 0 407 423 924 940 517 517 941 940 941 940 1 0 8 -8 15 -17z"/>
<path d="M1898 473 c6 -2 18 -2 25 0 6 3 1 5 -13 5 -14 0 -19 -2 -12 -5z"/>
</g>
</svg>
