<svg id="svg" xmlns="http://www.w3.org/2000/svg" xmlns:xlink="http://www.w3.org/1999/xlink" width="400" height="400" viewBox="0, 0, 400,400"><g id="svgg"><path id="path0" d="M118.497 44.029 C 113.994 46.273,110.370 50.390,108.494 55.391 C 107.937 56.877,107.556 66.051,107.556 77.976 L 107.556 98.058 112.449 107.918 C 125.508 134.229,125.005 159.923,111.072 178.378 L 107.556 183.035 107.556 195.941 L 107.556 208.846 110.872 210.548 L 114.189 212.250 127.317 205.675 L 140.444 199.100 153.778 205.778 L 167.111 212.456 180.223 205.889 L 193.334 199.322 206.445 205.889 L 219.555 212.456 232.889 205.778 L 246.222 199.100 259.556 205.778 L 272.889 212.456 286.000 205.889 L 299.110 199.322 312.224 205.890 L 325.337 212.457 335.113 207.555 C 340.490 204.858,344.883 202.355,344.876 201.993 C 344.649 190.620,333.762 173.477,322.621 166.947 C 312.122 160.794,310.455 160.564,273.575 160.184 L 240.038 159.838 239.797 102.507 L 239.556 45.176 237.457 43.477 C 234.736 41.274,230.691 41.309,228.444 43.556 C 226.703 45.297,226.667 46.519,226.667 102.667 L 226.667 160.000 213.393 160.000 L 200.120 160.000 199.838 139.778 L 199.556 119.556 196.792 113.778 C 192.646 105.108,180.708 95.116,174.491 95.112 C 173.703 95.111,173.356 89.838,173.158 74.821 L 172.889 54.531 170.437 50.829 C 165.926 44.018,157.118 40.301,149.826 42.131 L 147.556 42.701 147.556 72.061 C 147.556 106.337,147.299 107.556,140.082 107.556 C 134.406 107.556,134.222 106.478,134.222 73.149 C 134.222 39.145,134.810 41.778,127.213 41.778 C 124.503 41.778,121.415 42.576,118.497 44.029 M83.194 115.157 C 73.216 117.750,67.042 119.841,64.821 121.380 C 50.879 131.042,52.108 153.419,67.001 161.073 C 74.155 164.750,100.162 170.674,101.699 168.976 C 106.943 163.181,110.069 149.111,108.540 138.182 C 107.113 127.977,101.014 110.948,98.871 111.182 C 98.514 111.221,91.460 113.010,83.194 115.157 M162.724 123.333 C 185.298 134.780,168.383 168.817,145.326 158.342 C 126.714 149.887,133.259 120.889,153.778 120.889 C 156.517 120.889,159.523 121.710,162.724 123.333 M149.333 136.000 C 146.978 138.355,146.984 143.207,149.345 145.344 C 153.445 149.054,160.000 146.229,160.000 140.751 C 160.000 137.013,157.341 134.222,153.778 134.222 C 152.296 134.222,150.321 135.012,149.333 136.000 M128.000 220.444 C 114.985 227.092,114.094 227.335,110.178 225.311 L 107.556 223.954 107.556 236.399 L 107.556 248.843 110.178 250.199 C 114.028 252.190,114.298 252.115,128.103 245.220 L 140.787 238.884 153.959 245.423 L 167.130 251.962 180.213 245.439 L 193.296 238.916 206.426 245.434 L 219.556 251.953 232.889 245.333 L 246.222 238.714 259.565 245.338 L 272.908 251.962 285.991 245.439 L 299.074 238.916 312.195 245.430 L 325.316 251.944 335.102 247.115 L 344.889 242.287 344.889 230.032 C 344.889 223.292,344.694 217.778,344.455 217.778 C 344.217 217.778,339.818 219.868,334.681 222.423 L 325.342 227.068 312.197 220.542 L 299.053 214.017 286.427 220.342 C 271.231 227.954,274.482 227.963,259.001 220.269 L 246.129 213.871 232.842 220.467 L 219.556 227.064 206.426 220.545 L 193.296 214.027 180.203 220.555 L 167.111 227.083 154.214 220.652 C 138.890 213.012,142.495 213.041,128.000 220.444 M127.615 260.193 L 114.342 266.841 111.363 265.421 C 109.725 264.639,108.198 264.000,107.970 264.000 C 106.412 264.000,107.660 329.926,109.319 335.240 C 118.122 363.448,156.894 366.290,170.000 339.688 L 172.889 333.824 173.157 313.134 L 173.425 292.444 226.268 292.444 L 279.111 292.444 279.111 311.017 C 279.111 327.133,279.347 330.338,280.893 335.240 C 289.725 363.241,327.926 366.255,341.639 340.033 L 344.444 334.667 344.702 295.753 L 344.960 256.839 335.148 261.759 L 325.337 266.680 312.233 260.116 L 299.130 253.553 285.768 260.217 L 272.406 266.882 259.221 260.277 L 246.035 253.672 232.957 260.256 L 219.879 266.840 206.606 260.192 L 193.332 253.544 180.222 260.111 L 167.112 266.678 154.000 260.111 L 140.888 253.544 127.615 260.193 " stroke="none" fill="#000000" fill-rule="evenodd"></path></g></svg>