<?xml version="1.0" standalone="no"?>

<svg version="1.0" xmlns="http://www.w3.org/2000/svg"
 width="360.000000pt" height="360.000000pt" viewBox="0 0 360.000000 360.000000"
 preserveAspectRatio="xMidYMid meet">

<g transform="translate(0.000000,360.000000) scale(0.100000,-0.100000)"
fill="#000000" stroke="none">
<path d="M1403 3585 c-43 -30 -27 -85 24 -85 71 0 90 -26 124 -171 19 -80 27
-99 58 -130 20 -20 55 -42 78 -49 36 -11 46 -11 68 4 43 28 28 86 -23 86 -43
0 -77 50 -97 142 -22 102 -44 149 -90 184 -44 33 -110 42 -142 19z"/>
<path d="M2365 3540 c-18 -20 -18 -22 -2 -49 35 -59 14 -108 -78 -187 -69 -59
-95 -107 -95 -171 0 -82 28 -113 87 -99 24 7 24 8 18 71 l-7 65 85 88 c94 95
107 119 107 192 0 86 -70 140 -115 90z"/>
<path d="M433 3498 c-70 -77 -58 -162 37 -273 73 -85 89 -128 66 -173 -20 -39
-20 -47 0 -66 26 -27 62 -20 84 17 47 76 35 143 -44 238 -88 108 -106 158 -66
194 24 22 26 48 4 69 -22 23 -57 20 -81 -6z"/>
<path d="M3130 3499 c-35 -14 -59 -38 -82 -83 -18 -35 -19 -50 -12 -171 l7
-132 -42 -33 c-58 -47 -53 -100 9 -100 41 0 86 35 110 84 20 43 21 54 14 139
-14 153 -3 199 55 210 37 8 49 39 27 72 -17 26 -44 31 -86 14z"/>
<path d="M2043 3489 c-25 -9 -43 -38 -43 -68 0 -51 79 -81 113 -43 48 54 -3
136 -70 111z"/>
<path d="M1151 3357 c-7 -9 -11 -28 -9 -44 2 -23 10 -30 45 -41 54 -18 62 -40
66 -182 2 -101 5 -120 26 -154 43 -69 119 -97 155 -57 25 28 17 52 -25 74 -50
26 -59 52 -59 170 0 115 -15 161 -68 211 -37 35 -110 47 -131 23z"/>
<path d="M2672 3340 c-62 -25 -39 -130 29 -130 61 0 86 81 37 123 -22 19 -32
20 -66 7z"/>
<path d="M182 3310 c-26 -11 -44 -51 -35 -77 20 -58 77 -71 112 -27 26 33 26
55 4 82 -22 25 -51 33 -81 22z"/>
<path d="M3449 3182 c-45 -38 -16 -122 43 -122 25 0 68 44 68 70 0 26 -43 70
-68 70 -11 0 -30 -8 -43 -18z"/>
<path d="M1891 3114 c-12 -15 -21 -35 -21 -46 0 -25 44 -68 68 -68 33 0 65 34
65 68 0 68 -72 97 -112 46z"/>
<path d="M832 3104 c-44 -31 -17 -124 37 -124 10 0 30 9 45 21 69 55 -9 154
-82 103z"/>
<path d="M89 2918 c-44 -15 -49 -43 -49 -267 l0 -208 100 -154 100 -154 0
-461 c0 -449 0 -461 20 -482 27 -29 71 -28 98 1 21 23 22 30 22 270 l0 247 35
0 35 0 0 -250 c0 -237 1 -251 20 -270 29 -29 74 -26 99 6 21 26 21 37 21 478
l0 451 35 -52 35 -52 0 -459 c0 -450 0 -460 21 -486 25 -32 66 -34 97 -6 22
20 22 26 22 275 l0 255 35 0 35 0 0 -253 c0 -252 0 -254 23 -275 32 -30 71
-28 96 4 21 26 21 36 21 489 0 389 2 464 14 474 33 27 36 -20 36 -487 l0 -459
23 -21 c32 -30 71 -28 96 4 20 25 21 39 21 276 l0 249 33 -3 32 -3 5 -258 c5
-241 6 -260 24 -273 27 -19 59 -18 87 5 24 19 24 21 27 249 l3 230 -122 129
c-126 132 -159 182 -159 243 0 19 13 88 29 152 15 65 26 120 23 123 -3 3 -16
5 -29 5 l-24 0 21 30 c12 17 29 30 38 30 9 0 28 19 42 41 29 47 70 75 126 87
l39 8 3 120 c2 110 1 123 -18 147 -26 33 -71 36 -100 7 -15 -15 -20 -33 -20
-75 0 -52 -1 -55 -25 -55 -25 0 -25 0 -25 100 0 112 -10 143 -52 161 -25 10
-33 9 -56 -8 l-27 -20 -5 -209 c-4 -171 -8 -213 -21 -232 l-16 -23 -17 25
c-13 21 -16 57 -16 226 l0 201 -26 25 c-19 20 -31 24 -52 20 -52 -13 -62 -37
-62 -157 l0 -109 -37 0 -38 0 0 170 c0 160 -1 171 -22 191 -26 26 -67 28 -93
4 -19 -17 -20 -32 -20 -218 0 -190 -1 -201 -22 -236 l-23 -36 -5 179 -5 179
-27 20 c-23 17 -31 18 -57 8 -33 -14 -51 -53 -51 -110 0 -36 0 -36 -37 -33
-75 6 -153 -63 -153 -135 0 -85 60 -148 142 -148 43 0 47 -2 51 -28 2 -15 1
-29 -1 -32 -3 -3 -42 -5 -87 -5 l-82 0 -56 85 -57 85 0 203 c0 182 -2 206 -17
219 -26 22 -45 26 -74 16z m649 -623 c28 -30 81 -46 126 -38 29 4 36 1 55 -26
l22 -31 -115 0 -115 0 -20 29 c-20 28 -21 30 -4 60 10 17 20 31 23 31 3 0 15
-11 28 -25z"/>
<path d="M2814 2849 c-17 -19 -19 -38 -20 -190 0 -93 -3 -169 -7 -169 -4 0
-20 0 -37 0 l-30 0 0 110 c0 124 -12 150 -70 150 -17 0 -39 -9 -50 -20 -19
-19 -20 -33 -20 -222 0 -186 -2 -205 -20 -228 -17 -22 -20 -41 -19 -150 0 -94
3 -130 14 -144 13 -17 15 -91 15 -481 l0 -462 23 -21 c29 -27 71 -28 97 -2 19
19 20 33 20 270 l0 250 35 0 35 0 0 -250 c0 -237 1 -251 20 -270 29 -29 74
-26 99 6 21 26 21 37 21 483 l0 457 35 54 34 55 1 -451 c0 -441 0 -452 21
-478 15 -19 30 -26 54 -26 62 0 65 13 65 292 l0 248 35 0 35 0 0 -250 c0 -237
1 -251 20 -270 11 -11 33 -20 50 -20 17 0 39 9 50 20 19 19 20 33 20 483 l0
462 100 150 100 150 0 213 c0 209 -5 245 -34 264 -21 14 -66 8 -86 -12 -19
-19 -20 -33 -20 -221 l0 -201 -55 -84 -55 -84 -91 0 c-79 0 -90 2 -85 16 3 9
6 23 6 33 0 13 8 16 38 13 48 -4 100 23 130 68 19 28 23 44 19 83 -7 84 -74
143 -149 133 -38 -4 -38 -4 -38 33 0 82 -42 131 -95 111 -41 -15 -44 -31 -47
-211 l-3 -174 -22 36 c-21 34 -23 46 -23 234 0 171 -2 200 -16 216 -23 26 -76
25 -100 -2z m76 -609 l22 -30 -22 -35 -22 -35 -115 0 -115 0 20 32 c20 31 25
33 79 33 44 0 66 5 91 23 17 13 32 28 32 33 0 16 8 10 30 -21z"/>
<path d="M2259 2821 l-29 -29 0 -384 0 -383 -85 -128 -85 -127 -214 0 -214 0
-86 91 c-47 51 -86 98 -86 105 0 8 11 60 24 117 27 114 25 145 -11 181 -51 51
-139 38 -168 -26 -18 -40 -75 -280 -75 -317 0 -38 14 -55 207 -257 l173 -181
0 -184 -1 -184 -160 -195 c-206 -249 -219 -267 -219 -301 0 -50 20 -76 167
-211 162 -149 197 -169 254 -145 44 18 74 73 64 118 -6 27 -101 128 -192 204
-18 15 -33 31 -33 37 0 5 39 56 86 114 l86 104 129 0 129 0 0 -375 c0 -413 1
-419 60 -450 37 -19 63 -19 100 0 62 32 60 5 60 779 l0 705 150 228 150 228 0
418 0 419 -29 29 c-24 24 -38 29 -76 29 -38 0 -52 -5 -76 -29z"/>
<path d="M1502 2798 c-35 -17 -43 -68 -40 -248 3 -159 4 -165 25 -176 13 -6
31 -18 41 -27 10 -10 22 -17 25 -17 4 0 26 21 49 46 23 25 59 54 80 65 38 19
38 19 38 83 0 50 -5 69 -22 91 -18 23 -26 26 -60 22 l-38 -5 0 66 c0 73 -4 83
-37 101 -26 13 -31 13 -61 -1z"/>
<path d="M1997 2732 c-10 -10 -17 -26 -17 -34 0 -13 -8 -15 -38 -11 -34 4 -42
1 -60 -22 -18 -23 -22 -41 -22 -106 l0 -79 30 0 c46 0 132 -37 177 -75 23 -19
44 -35 48 -35 3 0 5 76 3 169 -3 149 -5 171 -22 190 -24 26 -77 28 -99 3z"/>
<path d="M1815 2383 c-89 -20 -150 -65 -188 -137 -44 -84 -24 -203 48 -279 68
-72 196 -95 280 -50 87 46 137 125 138 217 1 132 -86 232 -218 249 -22 3 -49
3 -60 0z"/>
<path d="M2499 1869 c-6 -12 -69 -109 -140 -216 l-129 -195 0 -229 c0 -222 1
-229 20 -229 11 0 29 9 40 20 19 19 20 33 20 270 l0 250 35 0 35 0 0 -244 c0
-231 1 -245 21 -270 25 -32 70 -35 99 -6 19 19 20 33 20 445 0 234 -2 425 -5
425 -2 0 -9 -9 -16 -21z"/>
<path d="M1455 1290 c0 -110 1 -200 3 -200 2 0 14 12 27 28 23 26 24 33 25
178 0 145 -1 151 -23 172 -13 12 -25 22 -28 22 -2 0 -4 -90 -4 -200z"/>
</g>
</svg>
