<?xml version="1.0" standalone="no"?>

<svg version="1.0" xmlns="http://www.w3.org/2000/svg"
 width="225.000000pt" height="225.000000pt" viewBox="0 0 225.000000 225.000000"
 preserveAspectRatio="xMidYMid meet">

<g transform="translate(0.000000,225.000000) scale(0.100000,-0.100000)"
fill="#000000" stroke="none">
<path d="M1863 2188 c-21 -40 -39 -59 -75 -78 -75 -39 -74 -56 3 -95 38 -20
54 -36 74 -76 33 -65 60 -65 91 1 17 34 34 52 75 75 70 40 71 60 4 94 -39 21
-56 37 -78 79 -19 34 -35 52 -47 52 -12 0 -28 -18 -47 -52z m76 -102 l22 -24
-26 -26 -26 -26 -24 27 -24 28 21 23 c27 28 29 27 57 -2z"/>
<path d="M703 2130 c-40 -24 -66 -73 -66 -126 0 -106 116 -176 212 -126 100
50 106 186 12 249 -43 29 -113 31 -158 3z m136 -76 c28 -35 26 -69 -4 -99 -42
-43 -104 -30 -124 25 -19 57 13 99 76 100 22 0 38 -8 52 -26z"/>
<path d="M1396 2131 c-50 -34 -69 -74 -64 -136 3 -40 11 -62 29 -81 73 -78
185 -70 239 18 36 60 23 134 -34 187 -36 34 -128 41 -170 12z m131 -73 c33
-30 31 -80 -3 -107 -54 -42 -124 -10 -124 56 0 66 77 98 127 51z"/>
<path d="M1080 1935 c-10 -12 -8 -28 10 -85 19 -58 22 -85 17 -148 -5 -81 -41
-196 -83 -269 l-24 -42 -81 54 c-139 93 -252 121 -296 73 -27 -29 -626 -1466
-619 -1485 3 -7 12 -16 20 -19 19 -7 1464 595 1489 621 44 47 1 189 -99 326
-51 69 -54 62 40 111 97 49 136 60 241 67 85 5 100 9 103 24 7 36 -16 47 -97
47 -42 0 -100 -7 -129 -14 -60 -16 -169 -66 -212 -96 l-29 -20 -136 134 -136
135 35 69 c78 155 103 301 72 422 -26 100 -55 132 -86 95z m-303 -489 c40 -19
151 -87 182 -112 2 -2 -15 -26 -38 -55 -22 -28 -41 -55 -41 -60 0 -10 29 -39
40 -39 5 0 29 23 53 51 l45 52 58 -49 c31 -27 87 -82 125 -124 l68 -75 -32
-33 c-25 -26 -29 -36 -21 -50 17 -26 38 -25 71 2 l31 26 46 -70 c61 -90 98
-173 94 -207 -3 -25 -7 -28 -36 -25 -131 10 -474 296 -644 537 -78 109 -128
220 -113 245 11 17 58 11 112 -14z m-73 -243 c75 -115 259 -313 379 -409 40
-32 77 -62 82 -67 6 -4 -23 4 -63 18 -84 30 -116 30 -120 -2 -2 -16 5 -26 25
-36 35 -18 205 -73 256 -82 21 -4 35 -11 30 -15 -15 -13 -208 -90 -227 -90
-39 0 -228 71 -342 128 -115 58 -295 169 -308 191 -8 12 55 171 68 171 4 0 25
-13 45 -29 55 -43 228 -154 299 -191 49 -26 68 -31 80 -23 37 23 19 46 -89
108 -103 60 -224 140 -283 188 l-28 23 53 129 c44 108 54 126 63 110 6 -10 42
-65 80 -122z m-229 -493 c106 -72 265 -154 386 -199 l104 -40 -50 -21 c-28
-12 -78 -33 -113 -47 -72 -29 -60 -32 -234 50 -59 27 -114 47 -122 44 -9 -4
-16 -18 -16 -32 0 -22 13 -31 106 -75 58 -28 104 -53 103 -55 -2 -1 -50 -22
-107 -45 l-104 -43 -91 47 c-142 73 -134 61 -96 153 18 43 34 80 36 82 2 3 17
-3 32 -12 60 -35 85 18 30 63 l-31 26 34 82 c21 53 37 80 45 77 7 -2 47 -27
88 -55z m-143 -501 c-4 -3 -41 -20 -82 -37 -41 -17 -92 -38 -112 -46 l-37 -16
30 73 c17 39 35 82 39 94 9 22 10 22 89 -20 44 -23 77 -45 73 -48z"/>
<path d="M297 1743 c-5 -4 -16 -26 -27 -50 -14 -33 -29 -47 -68 -67 -78 -40
-79 -57 -4 -96 36 -19 54 -38 75 -77 19 -35 35 -53 47 -53 12 0 28 18 47 53
22 41 39 57 78 78 67 34 66 54 -4 94 -41 23 -58 41 -75 75 -20 43 -51 62 -69
43z m48 -139 l27 -27 -26 -26 -26 -26 -26 26 -26 26 24 26 c12 14 24 25 25 26
1 1 14 -11 28 -25z"/>
<path d="M1452 1728 c-5 -7 -15 -33 -22 -58 -26 -97 -113 -243 -197 -331 -37
-39 -40 -65 -10 -83 16 -9 26 -3 68 43 126 136 246 381 209 426 -15 18 -34 19
-48 3z"/>
<path d="M1865 1627 c-83 -31 -166 -83 -258 -162 -77 -66 -91 -91 -62 -115 17
-14 18 -14 118 70 85 72 165 120 246 147 69 23 88 39 78 67 -9 22 -49 20 -122
-7z"/>
<path d="M2023 1418 c-22 -42 -38 -57 -75 -75 -38 -18 -48 -28 -48 -48 0 -19
8 -28 37 -40 50 -21 70 -41 93 -93 27 -60 55 -56 90 12 20 40 36 55 75 75 66
34 67 57 1 92 -36 20 -55 39 -75 75 -37 70 -61 70 -98 2z m77 -148 l-25 -26
-28 25 -27 25 25 26 26 27 27 -25 28 -25 -26 -27z"/>
<path d="M1822 820 c-96 -59 -96 -202 1 -255 47 -25 128 -17 163 16 37 34 54
72 54 117 0 105 -128 177 -218 122z m123 -75 c49 -48 17 -125 -52 -125 -66 0
-98 77 -51 127 29 31 72 30 103 -2z"/>
<path d="M1273 388 c-21 -40 -39 -58 -73 -75 -46 -24 -65 -46 -55 -63 4 -6 29
-22 56 -35 39 -20 54 -35 72 -73 18 -37 27 -47 47 -47 20 0 29 10 46 45 16 35
33 52 75 75 70 40 71 61 4 95 -40 20 -56 36 -78 78 -37 68 -57 68 -94 0z m75
-100 l21 -23 -25 -28 -24 -28 -24 28 -25 28 21 23 c12 12 24 22 28 22 4 0 16
-10 28 -22z"/>
</g>
</svg>
