<?xml version="1.0" standalone="no"?>

<svg version="1.0" xmlns="http://www.w3.org/2000/svg"
 width="360.000000pt" height="360.000000pt" viewBox="0 0 360.000000 360.000000"
 preserveAspectRatio="xMidYMid meet">

<g transform="translate(0.000000,360.000000) scale(0.100000,-0.100000)"
fill="#000000" stroke="none">
<path d="M635 3330 c-161 -33 -289 -142 -348 -297 l-22 -58 -3 -1135 c-2 -796
0 -1154 8 -1199 17 -96 54 -167 129 -242 75 -75 146 -112 242 -129 45 -8 403
-10 1199 -8 1133 3 1135 3 1191 24 157 61 269 191 298 348 15 83 15 2249 0
2332 -17 92 -55 162 -128 235 -73 73 -143 111 -235 128 -71 13 -2268 14 -2331
1z m2323 -185 c76 -23 132 -70 167 -140 l30 -60 3 -839 c2 -803 2 -839 -15
-824 -159 136 -435 359 -442 356 -5 -1 -125 -100 -267 -218 -142 -118 -262
-216 -266 -218 -4 -2 -230 200 -503 448 -273 248 -502 450 -508 447 -7 -3
-167 -178 -357 -390 -190 -212 -348 -386 -353 -386 -4 -1 -6 365 -5 812 l3
812 23 50 c38 81 85 122 177 151 31 10 284 13 1151 13 967 1 1117 -1 1162 -14z
m-1317 -1716 c255 -232 476 -433 491 -447 l27 -25 265 222 c146 121 270 222
276 223 6 2 112 -80 235 -182 l225 -185 -3 -190 c-2 -174 -4 -194 -25 -240
-30 -65 -73 -108 -136 -137 l-51 -23 -1124 -3 c-1243 -3 -1186 -5 -1273 61
-26 20 -54 55 -73 92 -30 58 -30 60 -33 250 l-3 192 363 406 c200 223 366 406
369 406 3 1 215 -189 470 -420z"/>
<path d="M2365 2878 c-134 -17 -279 -125 -339 -252 -128 -270 40 -588 338
-639 186 -32 386 73 471 247 102 208 35 452 -159 578 -93 60 -194 82 -311 66z
m213 -218 c27 -18 64 -55 83 -83 30 -44 34 -59 37 -127 3 -61 0 -87 -15 -121
-59 -131 -192 -194 -329 -154 -118 34 -205 164 -191 286 12 96 72 179 162 221
32 15 57 18 122 15 74 -3 87 -7 131 -37z"/>
</g>
</svg>
