<?xml version="1.0" standalone="no"?>
<!DOCTYPE svg PUBLIC "-//W3C//DTD SVG 20010904//EN"
 "http://www.w3.org/TR/2001/REC-SVG-20010904/DTD/svg10.dtd">
<svg version="1.0" xmlns="http://www.w3.org/2000/svg"
 width="980.000000pt" height="980.000000pt" viewBox="0 0 980.000000 980.000000"
 preserveAspectRatio="xMidYMid meet">

<g transform="translate(0.000000,980.000000) scale(0.100000,-0.100000)"
fill="#000000" stroke="none">
<path d="M4524 9511 c-40 -17 -64 -60 -64 -113 0 -55 19 -97 104 -228 53 -82
54 -85 33 -92 -50 -14 -77 -9 -87 18 -38 99 -136 174 -228 174 -48 0 -58 -4
-87 -33 -41 -41 -51 -77 -36 -128 12 -39 57 -79 89 -79 22 0 62 48 62 75 0 18
5 25 20 25 30 0 96 -36 114 -62 15 -21 14 -23 -31 -45 -116 -59 -188 -136
-244 -258 -42 -93 -57 -172 -69 -360 -14 -234 -45 -327 -138 -427 -58 -62
-112 -90 -172 -90 -57 0 -85 14 -110 54 l-19 31 -6 -25 c-9 -35 10 -100 37
-125 35 -32 63 -43 110 -44 l43 -1 -39 -9 c-50 -12 -105 3 -137 37 -22 23 -24
34 -24 112 0 104 17 135 98 183 41 23 46 28 22 23 -86 -19 -162 -90 -191 -177
-12 -36 -15 -73 -12 -137 4 -77 9 -98 42 -166 32 -63 60 -99 158 -198 66 -66
127 -134 136 -151 8 -16 15 -52 15 -80 -1 -41 -5 -53 -29 -73 -73 -63 -190 41
-144 129 14 25 64 25 90 -1 15 -15 20 -16 20 -6 0 26 -50 56 -92 56 -50 0
-100 -46 -117 -105 -15 -53 -14 -72 5 -135 23 -78 98 -150 180 -173 62 -18
151 -21 240 -11 l51 6 7 78 c17 202 82 278 286 330 223 57 289 150 255 360
-18 112 -18 110 -6 110 23 0 54 -115 54 -205 2 -201 -75 -314 -243 -356 -47
-11 -102 -25 -123 -30 -46 -12 -111 -69 -137 -118 -26 -52 -37 -97 -65 -264
-29 -173 -69 -315 -132 -477 -66 -167 -96 -222 -190 -349 -111 -151 -158 -231
-336 -576 -171 -331 -221 -412 -341 -545 l-85 -95 -26 -115 c-15 -63 -37 -155
-50 -205 -14 -52 -20 -94 -15 -99 21 -22 76 76 141 249 27 71 44 101 84 142
55 57 81 68 72 31 -4 -13 -11 -57 -18 -98 -12 -75 -13 -76 -124 -215 -386
-485 -655 -933 -932 -1555 -348 -781 -613 -1807 -554 -2145 29 -167 141 -268
342 -311 92 -20 313 -14 404 11 78 21 145 46 145 55 0 3 -30 12 -67 19 -118
21 -266 61 -325 88 -70 31 -133 96 -148 153 -34 125 89 318 268 423 101 59
110 58 58 -12 -61 -83 -87 -157 -93 -262 -9 -136 25 -209 128 -278 73 -49 140
-71 354 -117 94 -20 256 -64 360 -99 105 -34 192 -61 194 -59 2 2 -23 27 -55
56 -127 116 -220 262 -264 418 -25 85 -38 322 -22 400 l9 45 7 -40 c48 -271
126 -438 284 -607 101 -107 208 -186 346 -253 139 -69 238 -95 386 -102 176
-8 370 32 569 119 153 67 334 196 393 281 14 21 -2 9 -47 -32 -41 -38 -96 -77
-135 -95 -60 -28 -74 -31 -170 -31 -86 0 -113 4 -151 21 -156 72 -225 244
-156 385 26 53 127 165 113 124 -30 -83 -22 -191 18 -260 33 -55 101 -108 167
-130 75 -25 197 -17 271 17 68 31 149 105 185 166 14 24 29 40 32 35 4 -4 26
-33 49 -64 47 -62 96 -105 162 -140 38 -20 59 -24 140 -24 81 0 103 4 150 26
120 56 180 143 180 260 0 37 -5 80 -10 95 -18 46 0 41 50 -13 117 -127 116
-282 -1 -401 -115 -116 -297 -132 -459 -40 -72 40 -46 10 39 -46 173 -115 400
-197 624 -226 112 -15 217 -1 337 44 398 150 658 532 664 977 0 54 4 95 8 91
3 -4 14 -45 25 -92 13 -64 18 -124 17 -240 -1 -137 -4 -165 -28 -245 -49 -164
-124 -293 -250 -432 -31 -33 -56 -64 -56 -68 0 -10 28 0 240 85 107 43 260 99
340 125 174 56 248 94 300 152 50 57 70 118 70 212 0 94 -30 185 -89 271 -23
33 -39 60 -36 60 4 0 34 -14 67 -30 182 -90 297 -234 306 -381 9 -140 -77
-220 -303 -283 -49 -14 -124 -30 -165 -37 l-74 -11 24 -21 c34 -28 139 -76
202 -93 82 -22 217 -29 289 -15 155 31 252 109 292 235 72 229 -33 1038 -219
1690 -269 943 -698 1752 -1283 2420 l-95 108 45 -7 c56 -9 137 -40 168 -63 12
-10 48 -61 80 -113 65 -108 88 -121 83 -44 -2 28 -12 75 -22 105 -11 31 -15
56 -9 58 16 6 39 33 35 41 -3 4 -30 13 -59 20 -65 14 -145 61 -247 143 -149
121 -190 180 -360 519 -112 221 -186 345 -280 464 -32 40 -50 82 -90 205 -94
296 -149 537 -195 857 -42 289 -69 315 -301 286 -190 -23 -303 4 -363 88 -30
41 -51 113 -51 176 0 29 3 34 18 28 9 -4 40 -9 67 -12 41 -4 56 -1 85 19 40
27 175 235 186 285 3 18 1 62 -5 99 -17 92 -9 119 39 138 51 20 116 80 141
128 55 108 27 266 -68 378 -23 28 -26 40 -24 91 5 114 -54 187 -214 264 -81
40 -230 82 -347 100 -21 3 -38 12 -38 18 0 16 49 95 75 121 18 18 19 18 38 -8
56 -77 159 29 108 111 -61 97 -195 74 -252 -43 -14 -31 -24 -73 -27 -120 l-5
-74 -54 0 -55 0 7 43 c4 23 15 79 26 125 29 128 22 190 -29 236 -24 21 -96 30
-128 17z m873 -1127 c47 -82 35 -173 -31 -233 -29 -27 -31 -25 -15 16 28 73
29 143 4 237 -11 42 14 30 42 -20z m-799 -607 c2 -10 -3 -17 -12 -17 -18 0
-29 16 -21 31 9 14 29 6 33 -14z m31 -63 c31 -39 29 -107 -4 -139 -31 -32 -60
-32 -90 1 -35 38 -35 105 0 139 32 33 68 32 94 -1z m817 -862 c84 -43 119
-107 119 -217 0 -66 -5 -91 -29 -145 -16 -36 -29 -78 -29 -95 0 -17 32 -99 72
-185 40 -85 96 -209 123 -275 28 -66 60 -138 71 -160 23 -46 207 -294 427
-575 84 -107 158 -202 164 -210 6 -8 -11 4 -39 28 -274 233 -508 388 -677 448
-58 20 -155 17 -234 -7 -91 -28 -225 -99 -309 -164 l-68 -53 -71 54 c-149 114
-323 186 -451 187 -70 0 -92 -4 -175 -37 -177 -71 -378 -188 -552 -323 -118
-90 -299 -255 -379 -344 -39 -44 -74 -78 -76 -75 -3 3 11 31 31 63 44 71 64
129 72 202 4 31 17 75 30 98 30 52 170 230 342 435 158 189 188 234 262 398
31 69 104 211 162 315 159 286 148 260 138 344 -24 186 61 302 211 288 74 -6
135 -36 259 -125 52 -38 103 -71 112 -75 19 -7 37 6 150 104 89 79 115 96 166
115 47 18 128 12 178 -14z m228 -1756 c228 -281 440 -645 602 -1033 66 -159
187 -500 182 -514 -2 -4 -41 78 -88 184 -205 466 -484 990 -728 1367 -84 130
-75 129 32 -4z m-1242 32 c-225 -335 -544 -933 -763 -1430 -40 -92 -75 -166
-76 -164 -2 2 20 72 48 157 162 490 380 921 657 1299 69 94 165 208 175 209 4
1 -14 -32 -41 -71z m632 -3140 c9 -12 16 -43 16 -68 0 -85 -57 -123 -86 -55
-7 19 -14 44 -14 55 0 11 7 36 14 55 18 41 47 46 70 13z m141 -173 c30 -29 31
-49 5 -75 -38 -38 -110 -14 -110 38 0 18 46 62 65 62 9 0 27 -11 40 -25z
m-248 -11 c15 -24 15 -29 2 -53 -28 -50 -119 -33 -119 22 0 57 85 79 117 31z
m95 -116 c36 -28 41 -133 8 -173 -19 -23 -48 -18 -66 10 -33 50 -12 175 29
175 7 0 20 -6 29 -12z m-95 -222 c24 -21 28 -31 27 -73 -1 -27 -10 -73 -19
-103 -12 -36 -20 -106 -24 -200 -6 -112 -11 -153 -25 -180 -37 -70 -77 -109
-144 -142 -59 -29 -76 -33 -147 -33 -130 1 -202 47 -235 149 -15 47 -8 131 14
174 42 81 158 117 231 72 45 -28 67 -71 67 -130 0 -91 -59 -150 -135 -136 -40
8 -87 55 -87 88 0 53 78 78 129 41 18 -12 23 -13 19 -2 -2 8 -20 24 -39 37
-42 29 -84 24 -118 -15 -20 -23 -23 -34 -19 -80 6 -65 29 -100 89 -131 112
-59 242 17 285 167 20 66 14 124 -23 247 -34 116 -39 163 -19 206 32 68 119
90 173 44z m309 -12 c48 -50 49 -95 3 -248 -49 -167 -35 -290 41 -366 87 -87
227 -72 281 30 24 44 25 122 2 145 -39 39 -106 40 -140 2 -18 -19 -17 -20 4
-8 61 31 130 -4 119 -62 -8 -37 -21 -54 -59 -74 -66 -33 -140 16 -152 101 -16
103 48 176 153 176 97 0 162 -75 162 -188 0 -75 -15 -116 -60 -159 -46 -44
-93 -65 -165 -71 -75 -6 -156 16 -207 55 -86 67 -118 155 -118 321 0 78 -6
127 -25 201 -28 107 -25 136 17 165 12 9 42 16 67 16 37 0 49 -5 77 -36z"/>
<path d="M5240 6777 c-63 -21 -183 -90 -245 -140 l-29 -25 -72 49 c-133 91
-266 134 -343 110 -102 -30 -146 -109 -139 -248 5 -106 17 -132 135 -296 46
-65 101 -153 121 -195 34 -70 37 -85 37 -162 0 -95 -13 -127 -99 -254 -25 -36
-46 -68 -46 -71 0 -3 17 -5 38 -5 128 -1 258 -57 396 -173 l45 -39 51 44 c108
93 250 158 346 158 24 0 44 3 44 6 0 3 -22 34 -49 68 -78 98 -104 158 -109
251 -6 107 19 208 109 440 80 210 98 291 81 367 -30 128 -121 167 -272 115z"/>
</g>
</svg>
