<?xml version="1.0" standalone="no"?>

<svg version="1.0" xmlns="http://www.w3.org/2000/svg"
 width="980.000000pt" height="980.000000pt" viewBox="0 0 980.000000 980.000000"
 preserveAspectRatio="xMidYMid meet">

<g transform="translate(0.000000,980.000000) scale(0.100000,-0.100000)"
fill="#000000" stroke="none">
<path d="M1820 8674 c-274 -42 -489 -150 -673 -337 -176 -180 -288 -416 -316
-670 -15 -131 -15 -4395 -1 -4522 44 -378 261 -700 594 -879 161 -87 295 -122
530 -136 171 -11 260 -31 369 -86 112 -57 166 -102 422 -354 132 -129 311
-305 398 -390 87 -85 170 -160 185 -167 15 -7 44 -12 66 -13 74 0 60 -14 626
599 197 213 254 263 365 318 72 36 169 68 249 82 40 8 589 11 1672 11 1093 0
1637 3 1690 11 423 59 792 366 923 769 59 184 55 -5 58 2425 3 1507 0 2252 -7
2319 -34 321 -191 605 -438 791 -133 100 -252 158 -427 207 l-80 23 -3090 1
c-1699 1 -3101 0 -3115 -2z m6126 -315 c327 -45 585 -267 686 -589 l23 -75 0
-2285 c0 -2555 6 -2326 -71 -2489 -108 -229 -298 -386 -549 -454 -80 -21 -82
-21 -1770 -27 l-1690 -5 -99 -27 c-129 -36 -301 -119 -403 -197 -56 -42 -177
-164 -383 -386 l-302 -325 -334 326 c-359 351 -423 407 -536 470 -165 92 -300
130 -517 144 -84 6 -185 17 -223 26 -293 67 -525 288 -610 581 l-23 78 0 2285
0 2285 23 75 c101 321 356 543 677 589 92 13 6006 13 6101 0z"/>
<path d="M6775 6866 c-16 -7 -40 -24 -52 -37 -12 -13 -110 -204 -218 -424
-108 -220 -197 -401 -199 -402 -1 -2 -189 -30 -417 -63 -228 -33 -430 -63
-450 -66 -49 -7 -95 -37 -119 -76 -26 -43 -27 -123 -2 -161 10 -15 160 -165
333 -333 192 -187 315 -314 317 -327 2 -12 -29 -206 -68 -432 -39 -225 -72
-431 -73 -456 -2 -82 51 -140 140 -155 36 -5 56 2 204 79 151 78 477 248 610
319 l57 30 401 -212 c221 -116 417 -214 435 -217 70 -11 153 49 173 126 3 13
-29 226 -72 475 l-77 451 183 180 c101 99 246 241 323 315 154 150 182 193
171 261 -8 44 -43 92 -84 114 -15 7 -187 37 -382 65 -194 28 -394 58 -444 66
-49 7 -93 14 -97 14 -5 0 -8 4 -8 9 0 5 -90 191 -200 414 -179 362 -205 408
-236 428 -44 27 -109 34 -149 15z m220 -819 c142 -286 152 -303 190 -324 31
-16 115 -32 365 -68 179 -26 326 -48 328 -50 1 -1 -108 -109 -243 -240 -208
-201 -247 -244 -256 -278 -11 -40 -6 -70 98 -676 l6 -34 -149 78 c-82 43 -216
114 -299 158 -124 67 -158 81 -195 81 -47 0 -80 -16 -499 -238 -79 -42 -145
-75 -147 -74 -1 2 22 145 52 318 59 341 61 367 40 408 -13 25 -311 326 -436
440 -30 28 -52 53 -49 56 3 3 155 27 337 54 263 38 337 52 359 68 20 14 73
110 183 326 85 169 157 305 160 302 3 -2 73 -141 155 -307z"/>
<path d="M1510 6398 c-48 -25 -90 -88 -90 -137 0 -42 39 -109 78 -133 l37 -23
1600 0 1600 0 37 23 c39 24 78 91 78 133 0 49 -42 112 -90 137 l-44 22 -1581
0 -1581 0 -44 -22z"/>
<path d="M1500 5308 c-56 -39 -75 -73 -74 -134 0 -58 17 -91 68 -128 27 -21
29 -21 1624 -24 878 -1 1607 0 1619 3 40 9 90 62 102 108 22 75 -12 148 -86
186 -16 8 -458 11 -1621 11 l-1599 0 -33 -22z"/>
<path d="M1538 4240 c-48 -14 -86 -49 -103 -95 -30 -78 3 -162 78 -195 41 -19
86 -20 1622 -20 l1581 0 44 23 c48 24 90 88 90 137 0 48 -42 112 -89 137 l-44
23 -1576 -1 c-867 0 -1588 -4 -1603 -9z"/>
</g>
</svg>
