<?xml version="1.0" standalone="no"?>

<svg version="1.0" xmlns="http://www.w3.org/2000/svg"
 width="225.000000pt" height="225.000000pt" viewBox="0 0 225.000000 225.000000"
 preserveAspectRatio="xMidYMid meet">

<g transform="translate(0.000000,225.000000) scale(0.100000,-0.100000)"
fill="#000000" stroke="none">
<path d="M159 1971 l-39 -39 0 -177 0 -177 39 -39 39 -39 620 0 620 0 6 -27
c3 -16 10 -80 16 -143 14 -153 18 -170 38 -170 10 0 67 69 140 170 l123 170
146 0 145 0 39 39 39 39 0 177 0 177 -39 39 -39 39 -927 0 -927 0 -39 -39z
m1907 -34 c23 -27 24 -34 24 -183 l0 -156 -29 -29 -29 -29 -149 0 -149 0 -109
-150 c-59 -82 -109 -150 -110 -150 -1 0 -8 57 -14 128 -7 70 -14 137 -17 150
l-4 22 -631 0 -631 0 -29 29 -29 29 0 154 c0 164 6 189 54 208 11 5 427 8 924
7 l904 -2 24 -28z"/>
<path d="M362 1866 c-21 -39 -28 -45 -68 -51 -59 -8 -65 -28 -24 -70 30 -31
32 -36 25 -84 -9 -63 5 -72 64 -41 l41 20 41 -20 c58 -30 70 -22 62 40 -6 48
-4 53 27 85 41 42 35 61 -24 69 -40 6 -48 12 -68 49 -31 56 -48 57 -76 3z m56
-60 c6 -14 22 -26 43 -30 l32 -6 -23 -25 c-17 -18 -21 -31 -17 -55 7 -35 8
-34 -28 -16 -25 13 -32 13 -58 -1 l-30 -15 7 33 c5 25 2 37 -16 56 l-21 23 30
6 c18 4 36 16 44 30 16 30 23 30 37 0z"/>
<path d="M742 1898 c-5 -7 -17 -27 -26 -45 -13 -27 -23 -33 -62 -39 -59 -8
-65 -27 -24 -69 31 -32 33 -37 27 -85 -8 -62 4 -70 66 -42 42 19 44 19 78 1
19 -10 42 -18 53 -19 17 0 18 5 12 58 -6 56 -6 58 29 92 41 40 34 56 -30 66
-38 5 -46 11 -67 50 -24 45 -38 53 -56 32z m37 -92 c8 -14 26 -26 44 -30 l30
-6 -21 -23 c-18 -19 -21 -31 -16 -56 l7 -33 -30 15 c-26 14 -33 14 -58 1 -36
-18 -35 -19 -28 16 4 24 0 37 -17 55 l-23 25 32 6 c21 4 37 16 43 30 14 30 21
30 37 0z"/>
<path d="M1088 1866 c-20 -42 -25 -45 -70 -51 -63 -9 -70 -27 -27 -71 32 -33
34 -39 31 -90 -4 -62 4 -67 66 -35 36 19 38 19 72 0 62 -32 72 -27 68 35 -3
51 -1 57 31 90 43 44 36 62 -27 71 -45 6 -50 9 -70 51 -12 24 -29 44 -37 44
-8 0 -25 -20 -37 -44z m91 -86 c26 0 34 -15 16 -30 -9 -7 -15 -29 -15 -52 l0
-39 -27 15 c-24 12 -31 12 -55 0 l-28 -15 0 40 c0 22 -6 44 -15 51 -18 15 -10
30 16 30 12 0 27 12 37 29 l16 29 18 -29 c10 -16 26 -29 37 -29z"/>
<path d="M1452 1866 c-21 -39 -28 -45 -67 -50 -64 -10 -71 -26 -30 -66 35 -34
35 -36 29 -92 -8 -67 0 -72 65 -38 39 19 39 19 81 -1 59 -29 71 -21 63 41 -6
48 -4 53 27 85 41 42 35 61 -24 69 -40 6 -48 12 -68 49 -31 56 -48 57 -76 3z
m56 -60 c6 -14 22 -26 43 -30 l32 -6 -23 -25 c-17 -18 -21 -31 -17 -55 7 -35
8 -34 -28 -16 -25 13 -32 13 -58 -1 l-30 -15 7 34 c5 27 2 39 -14 53 -23 21
-18 35 14 35 15 0 27 9 34 25 14 31 26 32 40 1z"/>
<path d="M1832 1898 c-5 -7 -17 -27 -26 -45 -13 -27 -23 -33 -62 -39 -59 -8
-65 -27 -24 -69 31 -32 33 -37 27 -85 -8 -62 4 -70 62 -40 l41 20 40 -20 c66
-33 73 -29 65 36 -6 54 -5 58 25 89 41 42 35 62 -24 70 -40 6 -47 12 -68 51
-24 45 -38 53 -56 32z m37 -92 c8 -14 26 -26 44 -30 l30 -6 -21 -23 c-18 -19
-21 -31 -16 -56 l7 -33 -30 15 c-26 14 -33 14 -58 1 -36 -18 -35 -19 -28 16 4
24 0 37 -17 55 l-23 25 32 6 c21 4 37 16 43 30 14 30 21 30 37 0z"/>
<path d="M975 1281 c-147 -67 -173 -252 -51 -359 91 -80 243 -57 311 47 35 53
44 135 21 196 -42 107 -177 164 -281 116z m162 -48 c65 -31 105 -121 83 -190
-26 -80 -95 -128 -175 -121 -97 8 -162 85 -152 181 11 116 134 182 244 130z"/>
<path d="M434 1141 c-76 -19 -124 -82 -124 -164 0 -49 26 -96 73 -131 40 -29
134 -29 174 0 49 36 73 82 73 138 0 105 -95 181 -196 157z m97 -58 c32 -19 59
-68 59 -106 0 -38 -41 -91 -83 -104 -79 -26 -152 29 -152 114 0 39 5 49 37 79
43 39 91 45 139 17z"/>
<path d="M1595 1135 c-57 -20 -102 -73 -110 -129 -15 -94 64 -186 160 -186 95
0 175 92 161 185 -15 99 -119 163 -211 130z m104 -49 c89 -47 79 -173 -17
-213 -69 -29 -152 30 -152 108 0 51 13 75 53 99 38 24 78 25 116 6z"/>
<path d="M960 791 c-71 -22 -147 -76 -195 -138 l-32 -42 -31 43 c-61 84 -163
133 -258 123 -139 -14 -257 -148 -285 -324 -6 -39 -9 -79 -6 -87 6 -14 37 -16
246 -16 l239 0 -2 -52 -1 -53 423 -3 422 -2 0 55 0 55 240 0 240 0 0 54 c0 30
-8 81 -19 115 -62 200 -221 301 -384 245 -49 -17 -133 -85 -155 -126 l-13 -24
-72 71 c-89 89 -150 115 -260 114 -40 0 -83 -4 -97 -8z m223 -60 c130 -63 228
-218 252 -398 l7 -53 -381 0 -381 0 0 33 c1 139 104 328 217 398 85 53 201 61
286 20z m-612 -22 c42 -21 117 -102 125 -135 3 -12 0 -33 -7 -46 -7 -12 -20
-48 -30 -78 l-17 -55 -222 -3 -223 -2 6 52 c7 69 45 155 93 207 79 88 178 109
275 60z m1136 16 c60 -18 130 -80 162 -144 26 -51 54 -158 47 -177 -5 -12 -41
-14 -223 -12 l-217 3 -14 40 c-8 22 -22 61 -32 87 l-18 47 29 45 c36 54 88 95
143 112 54 17 63 17 123 -1z"/>
</g>
</svg>
