<?xml version="1.0" standalone="no"?>

<svg version="1.0" xmlns="http://www.w3.org/2000/svg"
 width="920.000000pt" height="920.000000pt" viewBox="0 0 920.000000 920.000000"
 preserveAspectRatio="xMidYMid meet">

<g transform="translate(0.000000,920.000000) scale(0.100000,-0.100000)"
fill="#000000" stroke="none">
<path d="M4275 9189 c-610 -46 -1170 -198 -1710 -464 -906 -445 -1649 -1189
-2095 -2100 -429 -876 -566 -1838 -400 -2819 174 -1034 731 -2010 1541 -2702
627 -536 1400 -900 2196 -1035 304 -51 450 -63 783 -63 320 -1 435 7 720 50
857 128 1675 513 2336 1098 713 631 1198 1437 1429 2377 217 884 147 1889
-192 2749 -456 1158 -1367 2089 -2511 2566 -418 175 -824 278 -1292 329 -174
19 -637 27 -805 14z m560 -469 c281 -18 570 -62 795 -122 629 -167 1175 -452
1656 -865 66 -56 141 -124 169 -152 l49 -51 -94 -98 c-52 -54 -311 -315 -575
-580 l-481 -483 -74 68 c-306 278 -672 477 -1059 573 -192 48 -420 80 -567 80
l-64 0 0 820 0 820 43 0 c23 0 114 -5 202 -10z m-2007 -2361 c1 -3 -32 -43
-74 -90 -217 -240 -408 -559 -508 -852 -75 -222 -136 -559 -136 -758 l0 -59
-587 0 c-324 0 -693 -3 -822 -7 l-234 -6 7 149 c19 394 75 738 173 1054 69
224 80 253 155 430 187 441 470 872 792 1208 l80 83 576 -573 c317 -315 578
-576 578 -579z m2047 235 c370 -50 730 -208 1010 -444 341 -287 567 -650 674
-1085 71 -288 71 -641 0 -930 -68 -279 -194 -543 -368 -770 -64 -85 -233 -256
-320 -327 -290 -233 -623 -378 -996 -433 -144 -21 -405 -21 -550 0 -587 86
-1079 398 -1414 898 -112 168 -216 409 -270 633 -73 296 -71 645 4 944 75 298
214 577 401 800 126 151 294 303 445 402 406 267 897 378 1384 312z m3855
-2026 c0 -184 -33 -510 -76 -748 -133 -740 -528 -1511 -1046 -2045 l-87 -90
-576 575 c-316 316 -575 578 -575 581 0 3 34 43 76 90 318 351 530 788 608
1254 19 114 36 280 36 356 l0 59 328 3 c180 1 549 3 820 5 l492 2 0 -42z
m-5809 -1806 c227 -206 485 -367 783 -486 226 -91 601 -166 832 -166 l64 0 0
-395 c0 -419 -4 -356 76 -1184 l6 -64 -187 7 c-591 23 -1075 132 -1588 360
-352 157 -705 383 -1012 649 -60 52 -132 117 -159 145 l-48 50 572 576 c315
317 576 576 580 576 4 0 40 -30 81 -68z"/>
</g>
</svg>
