<?xml version="1.0" standalone="no"?>

<svg version="1.0" xmlns="http://www.w3.org/2000/svg"
 width="920.000000pt" height="920.000000pt" viewBox="0 0 920.000000 920.000000"
 preserveAspectRatio="xMidYMid meet">

<g transform="translate(0.000000,920.000000) scale(0.100000,-0.100000)"
fill="#000000" stroke="none">
<path d="M1065 8416 c-119 -38 -214 -119 -263 -224 -23 -48 -27 -70 -27 -142
1 -75 6 -97 42 -190 23 -58 112 -294 198 -525 86 -231 176 -472 200 -535 24
-63 79 -212 123 -330 169 -455 365 -978 394 -1057 l31 -82 46 -9 c25 -5 1003
-169 2173 -363 1171 -195 2128 -356 2128 -359 0 -3 -957 -164 -2128 -359
-1170 -194 -2148 -358 -2173 -363 l-46 -9 -31 -82 c-45 -120 -365 -979 -424
-1137 -27 -74 -69 -187 -93 -250 -24 -63 -94 -250 -155 -415 -62 -165 -148
-397 -192 -515 -78 -207 -81 -218 -81 -300 0 -112 26 -180 98 -258 89 -96 211
-139 343 -121 60 9 307 131 2657 1312 528 266 1599 804 2380 1196 1910 960
2025 1018 2064 1050 19 15 51 56 70 92 35 61 36 68 36 164 0 90 -3 106 -29
160 -17 34 -54 83 -85 114 -51 49 -111 82 -616 336 -2314 1162 -4048 2034
-5524 2777 -436 220 -818 408 -849 419 -65 22 -204 25 -267 5z"/>
</g>
</svg>
