<?xml version="1.0" standalone="no"?>

<svg version="1.0" xmlns="http://www.w3.org/2000/svg"
 width="207.000000pt" height="176.000000pt" viewBox="0 0 207.000000 176.000000"
 preserveAspectRatio="xMidYMid meet">

<g transform="translate(0.000000,176.000000) scale(0.100000,-0.100000)"
fill="#000000" stroke="none">
<path d="M1495 1709 c-98 -14 -181 -57 -254 -130 -52 -53 -81 -102 -106 -181
l-23 -73 -489 -5 c-543 -6 -523 -3 -557 -73 -14 -31 -16 -87 -16 -479 0 -424
1 -444 20 -476 38 -62 68 -72 223 -72 l137 0 0 -95 c0 -88 2 -96 24 -110 13
-8 30 -13 38 -10 8 3 59 53 112 111 l97 104 422 0 c406 0 423 1 455 20 65 40
72 74 72 352 l0 246 50 17 c261 87 376 391 242 638 -80 148 -276 242 -447 216z
m198 -127 c129 -57 219 -207 203 -341 -13 -110 -89 -222 -183 -269 -166 -85
-377 -13 -460 157 -24 49 -28 68 -28 146 0 75 4 97 24 135 52 99 115 154 214
186 56 19 172 11 230 -14z m-568 -403 c4 -22 22 -71 41 -109 60 -119 173 -203
312 -230 l62 -13 0 -243 c0 -230 -1 -244 -19 -254 -13 -6 -170 -10 -443 -10
l-422 0 -63 -62 -63 -62 0 50 c0 27 -5 55 -12 62 -8 8 -61 12 -172 12 -134 0
-162 3 -178 17 -17 15 -18 42 -18 430 0 267 4 421 10 434 10 18 26 19 484 19
l474 0 7 -41z"/>
<path d="M1522 1497 c-6 -7 -12 -49 -14 -92 l-3 -80 -80 -3 c-85 -3 -105 -12
-105 -46 0 -43 15 -51 102 -56 l83 -5 3 -78 c3 -69 5 -79 27 -93 23 -15 27
-15 50 0 23 15 25 22 25 96 l0 80 80 0 c74 0 81 2 96 25 13 21 15 31 6 50 -10
22 -17 24 -94 27 l-83 3 -5 80 c-3 44 -9 86 -13 93 -11 16 -62 16 -75 -1z"/>
</g>
</svg>
