<?xml version="1.0" standalone="no"?>

<svg version="1.0" xmlns="http://www.w3.org/2000/svg"
 width="200.000000pt" height="200.000000pt" viewBox="0 0 200.000000 200.000000"
 preserveAspectRatio="xMidYMid meet">

<g transform="translate(0.000000,200.000000) scale(0.100000,-0.100000)"
fill="#000000" stroke="none">
<path d="M934 1916 l-34 -34 0 -292 0 -292 34 -34 34 -34 97 0 98 0 -7 -52
c-4 -29 -9 -85 -13 -125 -6 -71 -5 -72 21 -84 16 -8 33 -9 45 -3 11 5 85 66
166 137 l147 127 169 0 c192 0 221 8 245 65 21 52 20 554 -1 595 -31 60 -31
60 -521 60 l-446 0 -34 -34z m271 -271 c67 -66 -20 -171 -104 -125 -31 16 -46
65 -31 100 15 37 35 49 78 50 22 0 41 -8 57 -25z m267 11 c42 -31 40 -113 -2
-136 -36 -20 -87 -12 -109 16 -44 56 -11 134 57 134 20 0 45 -6 54 -14z m287
-12 c44 -56 11 -134 -57 -134 -63 1 -102 52 -81 108 14 37 36 52 80 52 29 0
42 -6 58 -26z"/>
<path d="M665 846 c-16 -7 -114 -72 -218 -144 l-187 -130 177 -138 c98 -75
183 -140 188 -144 6 -4 105 -18 221 -31 206 -22 212 -23 258 -5 55 21 624 445
643 479 20 36 15 67 -17 99 -38 37 -51 36 -232 -17 -122 -36 -128 -39 -128
-64 0 -42 -42 -104 -86 -128 -23 -13 -80 -29 -135 -37 -117 -18 -310 -30 -338
-21 -33 10 -45 42 -28 69 14 21 25 23 154 30 166 8 288 28 314 52 22 20 25 72
6 99 -19 25 -88 33 -347 40 -175 5 -221 3 -245 -9z"/>
<path d="M116 420 c-55 -72 -67 -94 -60 -109 8 -16 258 -218 312 -252 12 -7
25 -8 35 -3 18 10 137 159 137 171 -1 7 -273 224 -338 270 -16 11 -26 2 -86
-77z"/>
</g>
</svg>
