<?xml version="1.0" standalone="no"?>
<svg version="1.0" xmlns="http://www.w3.org/2000/svg"
 width="512.000000pt" height="512.000000pt" viewBox="0 0 512.000000 512.000000"
 preserveAspectRatio="xMidYMid meet">

<g transform="translate(0.000000,512.000000) scale(0.100000,-0.100000)"
fill="#000000" stroke="none">
<path d="M1690 5104 c-440 -62 -808 -243 -1110 -544 -479 -480 -669 -1170
-504 -1832 171 -685 719 -1230 1399 -1391 334 -80 651 -74 972 18 169 48 379
145 515 237 31 21 61 38 66 38 5 0 354 -348 776 -774 424 -429 787 -787 814
-804 162 -102 371 -41 454 133 23 49 28 73 28 135 0 147 40 100 -840 984
l-781 784 56 88 c207 330 306 696 292 1083 -11 289 -61 504 -179 760 -231 503
-716 906 -1253 1040 -218 55 -508 73 -705 45z m475 -649 c391 -81 715 -327
891 -678 95 -187 135 -360 135 -577 0 -296 -75 -518 -271 -797 -81 -116 -90
-124 -207 -207 -254 -181 -466 -260 -733 -273 -591 -29 -1129 368 -1285 950
-84 311 -39 668 118 950 75 134 209 291 332 388 158 125 386 223 590 254 112
18 320 13 430 -10z"/>
</g>
</svg>
