<?xml version="1.0" standalone="no"?>

<svg version="1.0" xmlns="http://www.w3.org/2000/svg"
 width="370.000000pt" height="370.000000pt" viewBox="0 0 370.000000 370.000000"
 preserveAspectRatio="xMidYMid meet">

<g transform="translate(0.000000,370.000000) scale(0.100000,-0.100000)"
fill="#000000" stroke="none">
<path d="M1786 3459 c-15 -12 -56 -82 -100 -173 -284 -582 -408 -821 -429
-828 -12 -4 -134 -23 -272 -42 -862 -122 -830 -116 -855 -175 -11 -26 -9 -36
9 -75 12 -24 43 -64 69 -87 26 -24 198 -190 383 -371 l336 -327 -28 -163 c-15
-90 -42 -244 -59 -343 -105 -604 -104 -598 -66 -642 38 -44 81 -37 217 35 522
275 638 336 737 387 l113 59 92 -47 c92 -46 261 -135 537 -281 299 -159 362
-187 399 -180 37 8 71 52 71 94 0 26 -16 124 -120 728 l-61 353 238 232 c585
569 563 546 563 605 0 34 -31 65 -80 80 -19 6 -163 29 -320 52 -157 23 -296
43 -310 45 -14 2 -108 16 -210 30 -102 14 -196 28 -208 31 -20 4 -63 85 -268
499 -147 298 -253 500 -267 510 -30 21 -80 19 -111 -6z"/>
</g>
</svg>
