<svg width="512" height="512" viewBox="0 0 512 512" xmlns="http://www.w3.org/2000/svg">
    <g transform="scale(1.35 1.35) translate(-89 -85)">
        <path
            d="M243.6,81.1c-44.3,4.7 -82.5,36.9 -95.1,80.3 -12.2,42.3 2.9,90.6 36.7,117.1 4.2,3.3 7.7,6.3 7.7,6.6 0.1,0.3 -2.3,1.6 -5.1,2.9 -9.3,4.2 -23,13 -32.6,20.8 -26.1,21.1 -45.4,50.9 -53.8,83.1 -2.5,9.6 -5.4,29.1 -5.4,36.2l0,3.9 15.8,-0 15.8,-0 1.3,-11.7c3.1,-30.3 14.3,-55 34.6,-76.2 36.2,-37.9 89.9,-49.9 139.2,-31.1 35.3,13.5 63.4,43.5 75.2,80.4 3.2,9.8 6,26.2 6.1,34.3l0,4.3 16,-0 16,-0 0,-5.3c0,-7.8 -2.7,-24.9 -5.5,-35.5 -11.7,-43.9 -43.9,-83.2 -83.7,-102 -4.3,-2.1 -7.7,-3.9 -7.7,-4.2 0,-0.3 2.7,-2.5 6.1,-5 12.7,-9.4 26.9,-27.9 33.6,-43.5 29.4,-69.2 -16.1,-147.3 -90.6,-155.4 -11.3,-1.2 -13.1,-1.2 -24.6,-0zM267.8,113c41.7,6.8 70.5,42.4 67.9,84 -2.2,34.6 -24.8,62.5 -58.4,72.2 -10.3,3 -31.3,3.2 -41.3,0.5 -45.2,-12.5 -70.2,-58.9 -55.5,-103.4 11.9,-36 50.1,-59.3 87.3,-53.3z"
            fill="#4285F4"
        stroke="none"/>
    </g>
</svg>