<?xml version="1.0" standalone="no"?>
<!DOCTYPE svg PUBLIC "-//W3C//DTD SVG 20010904//EN"
 "http://www.w3.org/TR/2001/REC-SVG-20010904/DTD/svg10.dtd">
<svg version="1.0" xmlns="http://www.w3.org/2000/svg"
 width="980.000000pt" height="980.000000pt" viewBox="0 0 980.000000 980.000000"
 preserveAspectRatio="xMidYMid meet">

<g transform="translate(0.000000,980.000000) scale(0.100000,-0.100000)"
fill="#000000" stroke="none">
<path d="M3191 7874 c-71 -19 -175 -74 -233 -124 -63 -54 -142 -175 -169 -258
-19 -57 -23 -97 -27 -259 l-4 -193 -172 0 c-197 0 -265 -12 -365 -65 -127 -67
-220 -171 -277 -310 l-29 -70 -3 -2094 c-3 -2312 -7 -2142 61 -2280 44 -91
158 -205 251 -250 133 -65 5 -61 1916 -61 1924 0 1795 -4 1930 62 89 44 206
161 249 248 51 106 61 159 68 358 l6 182 171 0 c190 0 250 10 351 60 153 75
275 231 311 398 18 88 21 953 2 1014 -14 49 -74 103 -127 118 -74 20 -166 -21
-201 -89 -19 -39 -20 -57 -20 -480 0 -287 -4 -458 -11 -492 -14 -65 -82 -138
-145 -157 -56 -16 -3388 -18 -3449 -1 -56 15 -128 92 -143 152 -9 34 -12 561
-12 2050 0 2213 -5 2058 63 2127 18 18 50 41 72 51 38 18 115 19 1745 19 1633
0 1707 -1 1745 -19 50 -23 93 -65 113 -111 8 -20 18 -83 21 -146 6 -102 9
-115 35 -149 82 -108 247 -91 306 30 21 43 22 56 17 168 -6 142 -23 205 -79
301 -77 131 -211 232 -358 271 -82 22 -3528 21 -3609 -1z m-429 -2921 l3
-1728 27 -74 c61 -167 193 -300 361 -363 l62 -23 1403 -3 1402 -2 0 -163 c0
-183 -10 -220 -71 -271 -70 -60 47 -56 -1796 -56 -1175 0 -1710 3 -1737 11
-53 15 -119 83 -134 139 -10 35 -12 498 -10 2076 l3 2031 30 48 c22 36 45 57
84 77 52 27 58 28 212 28 l159 0 2 -1727z"/>
<path d="M7085 6690 c-62 -13 -174 -57 -230 -92 -62 -39 -1664 -1634 -1706
-1700 -40 -62 -42 -69 -100 -413 -57 -335 -58 -377 -12 -472 52 -112 165 -191
285 -200 47 -4 141 8 368 46 252 43 315 57 365 81 53 26 162 131 891 862 l832
833 41 85 c52 109 71 192 71 309 0 258 -138 484 -367 600 -122 62 -305 87
-438 61z m270 -383 c60 -30 114 -85 146 -147 19 -37 24 -61 24 -130 0 -121
-24 -164 -176 -316 l-119 -119 -222 223 -223 222 122 119 c158 155 208 183
328 177 51 -2 84 -10 120 -29z m-600 -747 l220 -220 -540 -539 -540 -540 -253
-45 c-139 -25 -259 -46 -266 -46 -10 0 -2 64 30 258 24 141 44 261 44 266 0 8
1071 1085 1080 1086 3 0 104 -99 225 -220z"/>
<path d="M3852 6229 c-55 -28 -92 -88 -92 -152 0 -81 31 -131 102 -168 36 -18
71 -19 890 -19 811 0 855 1 894 19 107 49 138 190 61 278 -58 66 -10 63 -954
63 -854 0 -858 0 -901 -21z"/>
<path d="M3877 5495 c-74 -26 -117 -88 -117 -171 0 -63 37 -127 90 -154 37
-19 61 -20 528 -20 538 -1 534 -2 585 59 85 101 36 255 -91 291 -60 16 -947
13 -995 -5z"/>
<path d="M3865 4746 c-63 -28 -105 -94 -105 -166 0 -50 15 -88 48 -124 51 -55
62 -56 429 -56 323 0 339 1 381 21 131 64 130 260 -1 320 -39 17 -69 19 -382
18 -262 0 -347 -3 -370 -13z"/>
</g>
</svg>
