<?xml version="1.0" standalone="no"?>
<!DOCTYPE svg PUBLIC "-//W3C//DTD SVG 20010904//EN"
 "http://www.w3.org/TR/2001/REC-SVG-20010904/DTD/svg10.dtd">
<svg version="1.0" xmlns="http://www.w3.org/2000/svg"
 width="920.000000pt" height="512.000000pt" viewBox="0 0 920.000000 512.000000"
 preserveAspectRatio="xMidYMid meet">

<g transform="translate(0.000000,512.000000) scale(0.100000,-0.100000)"
fill="#000000" stroke="none">
<path d="M4510 5109 c-181 -29 -347 -205 -370 -391 -7 -59 0 -150 14 -196 6
-17 0 -20 -46 -26 -128 -17 -291 -76 -409 -147 -112 -67 -175 -117 -262 -208
-195 -205 -302 -454 -323 -756 l-7 -95 -82 -83 c-155 -155 -243 -324 -290
-549 -5 -26 -9 -28 -53 -28 -67 0 -117 -17 -157 -51 -49 -43 -62 -92 -46 -177
47 -261 424 -2254 432 -2284 10 -38 63 -92 106 -109 33 -12 3133 -12 3166 0
43 17 96 71 106 109 9 34 63 318 347 1829 72 381 95 521 89 549 -9 49 -67 108
-120 123 -22 6 -61 11 -86 11 l-47 0 -6 58 c-11 92 -54 249 -97 357 -112 282
-324 539 -578 702 -127 82 -352 178 -465 199 -31 5 -45 16 -70 52 -60 88 -154
188 -240 256 l-86 68 28 37 c65 84 89 141 102 236 31 242 -143 478 -380 515
-74 11 -93 11 -170 -1z m158 -346 c33 -20 62 -73 62 -112 0 -65 -66 -131 -130
-131 -37 0 -89 30 -110 65 -71 115 63 250 178 178z m-218 -605 c107 -19 256
-85 338 -148 70 -55 158 -152 216 -239 72 -110 80 -115 235 -151 412 -96 727
-389 854 -795 14 -44 28 -101 32 -127 l7 -48 -1527 0 -1527 0 6 32 c10 53 73
170 124 233 26 32 83 86 127 120 112 86 117 97 116 252 -2 193 33 338 110 468
188 315 529 470 889 403z m-1186 -1915 c3 -27 22 -185 41 -353 42 -361 91
-782 143 -1228 21 -178 36 -325 33 -328 -2 -2 -64 -4 -137 -4 -118 0 -133 2
-138 18 -3 9 -50 258 -105 552 -155 826 -250 1332 -257 1363 l-6 27 210 0 210
0 6 -47z m1166 -933 l0 -980 -305 0 c-255 0 -305 2 -305 14 0 8 -36 324 -80
703 -133 1144 -140 1201 -140 1223 0 20 4 20 415 20 l415 0 0 -980z m1170 952
c0 -15 -7 -79 -15 -142 -7 -63 -32 -272 -54 -465 -23 -192 -66 -562 -96 -822
-30 -260 -55 -479 -55 -488 0 -13 -38 -15 -305 -15 l-305 0 0 980 0 980 415 0
415 0 0 -28z m756 1 c-6 -26 -125 -662 -286 -1518 -39 -209 -73 -388 -76 -397
-5 -16 -20 -18 -141 -18 l-136 0 7 73 c4 39 54 477 111 972 58 495 105 903
105 908 0 4 95 7 211 7 l211 0 -6 -27z"/>
</g>
</svg>
